<?xml version="1.0" encoding="utf-8"?>
<!-- Generator: Adobe Illustrator 22.0.1, SVG Export Plug-In . SVG Version: 6.00 Build 0)  -->
<svg version="1.1" id="Capa_1" xmlns="http://www.w3.org/2000/svg" xmlns:xlink="http://www.w3.org/1999/xlink" x="0px" y="0px"
	 viewBox="0 0 797.5 814.6" style="enable-background:new 0 0 797.5 814.6;" xml:space="preserve">
<style type="text/css">
	.st0{fill:#1A2E35;}
	.st1{fill:#ECECEC;}
	.st2{fill:#2B454E;}
	.st3{fill:#FFC800;}
	.st4{opacity:0.2;enable-background:new    ;}
	.st5{opacity:0.1;enable-background:new    ;}
	.st6{fill:#FFFFFF;}
	.st7{opacity:0.4;fill:#FFFFFF;enable-background:new    ;}
	.st8{fill:#DCDCDC;}
	.st9{fill:#375A64;}
</style>
<g>
	<g>
		<polygon class="st0" points="23.1,639.6 117.2,639.4 211.2,639.3 399.4,639.1 587.5,639.3 681.6,639.4 775.6,639.6 681.6,639.9 
			587.5,639.9 399.4,640.1 211.2,639.9 117.2,639.9 		"/>
	</g>
	<ellipse class="st1" cx="399.4" cy="759.6" rx="271.4" ry="38.4"/>
	<g>
		<g>
			<path class="st0" d="M231.1,356.5L219.8,312l-89.3,22.7l-11.8-46.4L190,125.7l35.4-9l34.4,135.4l28.6-7.3l11.9,46.8l-28.6,7.3
				l11.3,44.5L231.1,356.5z M169.9,274.9l44.2-11.2l-14.6-57.5L169.9,274.9z"/>
			<path class="st0" d="M486.8,208c0,14.7-2.2,28.3-6.7,40.7c-4.5,12.4-10.6,23.1-18.4,32.2c-7.8,9-17,16.1-27.6,21.1
				s-22.2,7.5-34.7,7.5s-24.1-2.5-34.8-7.5c-10.7-5-20-12.1-27.8-21.1s-13.9-19.8-18.3-32.2c-4.4-12.4-6.5-26-6.5-40.7
				s2.2-28.3,6.5-40.7c4.4-12.4,10.4-23.1,18.3-32.2c7.8-9,17.1-16.1,27.8-21.3c10.7-5.1,22.3-7.7,34.8-7.7s24.1,2.6,34.7,7.7
				s19.8,12.2,27.6,21.3c7.8,9,14,19.8,18.4,32.2C484.6,179.7,486.8,193.3,486.8,208z M432.9,208c0-15.6-3.1-28.3-9.4-38
				s-14.3-14.6-24.1-14.6c-10.3,0-18.5,4.9-24.6,14.6c-6.1,9.7-9.2,22.4-9.2,38s3.1,28.3,9.2,37.9c6.1,9.6,14.3,14.4,24.6,14.4
				c9.8,0,17.9-4.8,24.1-14.4S432.9,223.6,432.9,208z"/>
			<path class="st0" d="M583,347.9l7.3-45.3l-90.9-14.7l7.7-47.3l130.2-120.8l36,5.8l-22.3,138l29.1,4.7l-7.7,47.6l-29.1-4.7
				l-7.3,45.3L583,347.9z M559.4,248.7l45,7.3l9.5-58.5L559.4,248.7z"/>
		</g>
		<g>
			<path class="st0" d="M324.1,73.9c-3.8,0-7.3-0.7-10.4-2.2s-5.8-3.5-8-6c-2.2-2.5-4-5.3-5.2-8.5s-1.8-6.4-1.8-9.8
				c0-3.5,0.6-6.8,1.9-10s3.1-6,5.4-8.5s5-4.4,8.1-5.8s6.5-2.2,10.2-2.2c3.8,0,7.2,0.8,10.3,2.3c3.1,1.5,5.8,3.6,8,6.1
				s3.9,5.3,5.1,8.5c1.2,3.2,1.8,6.4,1.8,9.7c0,3.5-0.6,6.8-1.9,10s-3,6-5.3,8.4s-5,4.4-8.1,5.8C331.2,73.2,327.8,73.9,324.1,73.9z
				 M309,47.4c0,2.3,0.3,4.4,1,6.5s1.7,4,3,5.6s2.9,2.9,4.8,3.9c1.9,1,4,1.5,6.4,1.5c2.5,0,4.6-0.5,6.5-1.5c1.9-1,3.5-2.3,4.8-4
				s2.3-3.5,2.9-5.6c0.7-2.1,1-4.2,1-6.4c0-2.3-0.4-4.4-1.1-6.5s-1.7-4-3-5.6s-2.9-2.9-4.8-3.9c-1.9-1-4-1.4-6.4-1.4
				c-2.5,0-4.6,0.5-6.5,1.5c-1.9,1-3.5,2.3-4.8,4c-1.3,1.6-2.2,3.5-2.9,5.6C309.3,43.1,309,45.2,309,47.4z"/>
			<path class="st0" d="M374.3,74.2c-3.1,0-6-0.5-8.5-1.6s-4.6-2.5-6.4-4.4c-1.7-1.8-3.1-4-4-6.4c-0.9-2.4-1.4-4.9-1.4-7.6
				c0-2.7,0.5-5.2,1.4-7.6c0.9-2.4,2.3-4.5,4-6.4c1.7-1.8,3.9-3.3,6.4-4.4c2.5-1.1,5.3-1.6,8.5-1.6c3.1,0,5.9,0.5,8.4,1.6
				s4.6,2.5,6.3,4.4c1.7,1.8,3.1,4,4,6.4s1.4,5,1.4,7.6s-0.5,5.2-1.4,7.6c-0.9,2.4-2.3,4.5-4,6.4c-1.7,1.8-3.8,3.3-6.3,4.4
				C380.2,73.7,377.4,74.2,374.3,74.2z M364.2,54.3c0,1.7,0.3,3.3,0.8,4.7s1.2,2.6,2.1,3.6s2,1.8,3.2,2.4s2.5,0.8,4,0.8
				c1.4,0,2.7-0.3,4-0.8c1.2-0.6,2.3-1.4,3.2-2.4c0.9-1,1.6-2.3,2.1-3.7s0.8-3,0.8-4.7s-0.3-3.2-0.8-4.6c-0.5-1.4-1.2-2.6-2.1-3.7
				c-0.9-1-2-1.8-3.2-2.4c-1.2-0.6-2.6-0.8-4-0.8s-2.7,0.3-4,0.9c-1.2,0.6-2.3,1.4-3.2,2.4c-0.9,1-1.6,2.3-2.1,3.7
				C364.5,51.1,364.2,52.6,364.2,54.3z"/>
			<path class="st0" d="M424.2,74.2c-3,0-5.7-0.7-7.9-2c-2.3-1.3-4-3.2-5.3-5.5v22.4h-9.9V35h8.6v6.6c1.4-2.3,3.3-4,5.5-5.3
				c2.3-1.3,4.9-1.9,7.8-1.9c2.6,0,5,0.5,7.2,1.6s4.1,2.5,5.7,4.3s2.8,3.9,3.8,6.3c0.9,2.4,1.4,5,1.4,7.7c0,2.8-0.4,5.4-1.3,7.9
				c-0.8,2.5-2,4.6-3.5,6.4s-3.3,3.2-5.3,4.3C428.9,73.7,426.6,74.2,424.2,74.2z M420.8,65.9c1.5,0,2.8-0.3,4.1-1
				c1.3-0.6,2.3-1.5,3.2-2.6c0.9-1.1,1.6-2.3,2.1-3.8c0.5-1.4,0.7-2.9,0.7-4.4c0-1.6-0.3-3.1-0.8-4.5s-1.3-2.6-2.2-3.6
				c-1-1-2.1-1.8-3.4-2.4c-1.3-0.6-2.7-0.9-4.2-0.9c-0.9,0-1.9,0.2-2.9,0.5s-1.9,0.8-2.7,1.4c-0.8,0.6-1.6,1.3-2.2,2.1
				c-0.7,0.8-1.2,1.6-1.5,2.6v9c0.9,2.2,2.2,4,4,5.5C416.8,65.1,418.7,65.9,420.8,65.9z"/>
			<path class="st0" d="M462.3,74.2c-3.2,0-6.4-0.5-9.5-1.5s-5.7-2.5-7.9-4.4l3.7-6.2c2.4,1.7,4.6,2.9,6.9,3.8
				c2.2,0.9,4.5,1.3,6.7,1.3c2,0,3.5-0.4,4.6-1.1s1.7-1.8,1.7-3.2c0-1.4-0.7-2.4-2-3s-3.5-1.4-6.5-2.2c-2.5-0.7-4.6-1.3-6.4-2
				c-1.8-0.6-3.2-1.4-4.3-2.2c-1.1-0.8-1.9-1.7-2.4-2.8s-0.7-2.3-0.7-3.8c0-2,0.4-3.7,1.1-5.3c0.8-1.6,1.8-2.9,3.2-4
				c1.4-1.1,3-1.9,4.8-2.5s3.8-0.9,6-0.9c2.9,0,5.6,0.4,8.1,1.3c2.5,0.8,4.8,2.2,7,4l-4,6c-2-1.5-3.9-2.5-5.7-3.2
				c-1.8-0.7-3.7-1-5.5-1c-1.7,0-3.1,0.3-4.2,1s-1.7,1.8-1.7,3.3c0,0.7,0.1,1.3,0.4,1.7s0.7,0.8,1.3,1.2c0.6,0.3,1.4,0.7,2.3,1
				c1,0.3,2.1,0.7,3.6,1c2.6,0.7,4.9,1.4,6.8,2.1c1.9,0.7,3.4,1.5,4.6,2.4s2.1,1.9,2.6,3.1c0.6,1.2,0.8,2.5,0.8,4.2
				c0,3.8-1.4,6.8-4.2,8.9C470.9,73.2,467.1,74.2,462.3,74.2z"/>
			<path class="st0" d="M486.2,53.9V20.8h9.9v33.1C496.1,53.9,486.2,53.9,486.2,53.9z M486.2,73.5V62.4h9.9v11.1H486.2z"/>
		</g>
	</g>
	<g>
		<g>
			<rect x="372.2" y="513.4" class="st2" width="64.7" height="5.3"/>
			<rect x="372.2" y="520.3" class="st2" width="64.7" height="5.3"/>
			<rect x="372.2" y="527.2" class="st2" width="64.7" height="5.3"/>
			<rect x="372.2" y="534.1" class="st2" width="64.7" height="5.3"/>
			<rect x="372.2" y="541" class="st2" width="64.7" height="5.3"/>
		</g>
		<g>
			<rect x="341.9" y="678.7" class="st2" width="122.9" height="5.3"/>
			<rect x="341.9" y="685.6" class="st2" width="122.9" height="5.3"/>
			<rect x="341.9" y="692.5" class="st2" width="122.9" height="5.3"/>
			<rect x="341.9" y="699.4" class="st2" width="122.9" height="5.3"/>
			<rect x="341.9" y="706.3" class="st2" width="122.9" height="5.3"/>
		</g>
		<g>
			<g>
				<path class="st3" d="M288,469.6c0.1-0.7-26.9-9.8-26.9-9.8l1.6-92.7l35.8-7.7L288,469.6z"/>
				<path class="st4" d="M288,469.6c0.1-0.7-26.9-9.8-26.9-9.8l1.6-92.7l35.8-7.7L288,469.6z"/>
			</g>
			<g>
				<path class="st3" d="M535,506c0.2-0.7,28.6,0.1,28.6,0.1l30.4-87.5l-30.9-19.5L535,506z"/>
				<path class="st4" d="M535,506c0.2-0.7,28.6,0.1,28.6,0.1l30.4-87.5l-30.9-19.5L535,506z"/>
			</g>
			<path class="st3" d="M282.8,503.8c0,0,10-149.9,18.8-199.2c0,0,181,13.7,278.8,51c0,0-50.4,175-53,183.7
				C527.3,539.4,399.9,514.3,282.8,503.8z"/>
			<g>
				<path class="st5" d="M444.4,324.6c-2.9,18-5.9,36.1-9,54.1l-9.3,54l-0.5-0.8l60.7,14.4l30.3,7.3l30.3,7.5l-30.4-6.8l-30.4-7
					l-60.7-14.2l-0.6-0.1l0.1-0.6l9.7-54C437.6,360.5,441,342.6,444.4,324.6z"/>
				<path class="st5" d="M437.7,334.9c0,1.7-1.3,3.4-3.2,3.5c-0.9,0.1-1.9-0.2-2.7-0.9c-0.7-0.7-1.2-1.7-1.2-2.7s0.4-2,1.2-2.7
					c0.7-0.7,1.7-0.9,2.7-0.9C436.4,331.5,437.8,333.2,437.7,334.9z M437.7,334.9c0-0.8-0.4-1.7-1-2.2s-1.4-0.7-2.2-0.7
					c-1.5,0.2-2.5,1.5-2.5,2.8s1,2.7,2.5,2.8c0.7,0.1,1.6-0.1,2.2-0.7C437.3,336.6,437.7,335.7,437.7,334.9z"/>
				<path class="st5" d="M434.5,357.2c0,1.7-1.3,3.4-3.2,3.5c-0.9,0.1-1.9-0.2-2.7-0.9c-0.7-0.7-1.2-1.7-1.2-2.7s0.4-2,1.2-2.7
					c0.7-0.7,1.7-0.9,2.7-0.9C433.3,353.8,434.6,355.5,434.5,357.2z M434.5,357.2c0-0.8-0.4-1.7-1-2.2s-1.4-0.7-2.2-0.7
					c-1.5,0.2-2.5,1.5-2.5,2.8s1,2.7,2.5,2.8c0.7,0.1,1.6-0.1,2.2-0.7C434.2,358.8,434.5,358,434.5,357.2z"/>
				<path class="st5" d="M430.6,380.8c0,1.7-1.3,3.4-3.2,3.5c-0.9,0.1-1.9-0.2-2.7-0.9c-0.7-0.7-1.2-1.7-1.2-2.7s0.4-2,1.2-2.7
					c0.7-0.7,1.7-0.9,2.7-0.9C429.3,377.4,430.7,379.1,430.6,380.8z M430.6,380.8c0-0.8-0.4-1.7-1-2.2s-1.4-0.7-2.2-0.7
					c-1.5,0.2-2.5,1.5-2.5,2.8s1,2.7,2.5,2.8c0.7,0.1,1.6-0.1,2.2-0.7C430.3,382.4,430.6,381.6,430.6,380.8z"/>
				<path class="st5" d="M426.7,404.3c0,1.7-1.3,3.4-3.2,3.5c-0.9,0.1-1.9-0.2-2.7-0.9c-0.7-0.7-1.2-1.7-1.2-2.7s0.4-2,1.2-2.7
					c0.7-0.7,1.7-0.9,2.7-0.9C425.4,401,426.8,402.7,426.7,404.3z M426.7,404.3c0-0.8-0.4-1.7-1-2.2s-1.4-0.7-2.2-0.7
					c-1.5,0.2-2.5,1.5-2.5,2.8s1,2.7,2.5,2.8c0.7,0.1,1.6-0.1,2.2-0.7C426.3,406,426.7,405.2,426.7,404.3z"/>
				<path class="st5" d="M440.1,441.9c0,1.7-1.3,3.4-3.2,3.5c-0.9,0.1-1.9-0.2-2.7-0.9c-0.7-0.7-1.2-1.7-1.2-2.7s0.4-2,1.2-2.7
					c0.7-0.7,1.7-0.9,2.7-0.9C438.8,438.5,440.1,440.2,440.1,441.9z M440.1,441.9c0-0.8-0.4-1.7-1-2.2s-1.4-0.7-2.2-0.7
					c-1.5,0.2-2.5,1.5-2.5,2.8s1,2.7,2.5,2.8c0.7,0.1,1.6-0.1,2.2-0.7C439.7,443.5,440,442.7,440.1,441.9z"/>
				<path class="st5" d="M462.3,447.3c0,1.7-1.3,3.4-3.2,3.5c-0.9,0.1-1.9-0.2-2.7-0.9c-0.7-0.7-1.2-1.7-1.2-2.7s0.4-2,1.2-2.7
					c0.7-0.7,1.7-0.9,2.7-0.9C461,444,462.3,445.7,462.3,447.3z M462.3,447.3c0-0.8-0.4-1.7-1-2.2s-1.4-0.7-2.2-0.7
					c-1.5,0.2-2.5,1.5-2.5,2.8s1,2.7,2.5,2.8c0.7,0.1,1.6-0.1,2.2-0.7C461.9,449,462.3,448.2,462.3,447.3z"/>
				<path class="st5" d="M484.5,452.7c0,1.7-1.3,3.4-3.2,3.5c-0.9,0.1-1.9-0.2-2.7-0.9c-0.7-0.7-1.2-1.7-1.2-2.7s0.4-2,1.2-2.7
					c0.7-0.7,1.7-0.9,2.7-0.9C483.3,449.4,484.6,451.1,484.5,452.7z M484.5,452.7c0-0.8-0.4-1.7-1-2.2s-1.4-0.7-2.2-0.7
					c-1.5,0.2-2.5,1.5-2.5,2.8s1,2.7,2.5,2.8c0.7,0.1,1.6-0.1,2.2-0.7C484.2,454.4,484.5,453.6,484.5,452.7z"/>
				<path class="st5" d="M506.8,458.2c0,1.7-1.3,3.4-3.2,3.5c-0.9,0.1-1.9-0.2-2.7-0.9c-0.7-0.7-1.2-1.7-1.2-2.7s0.4-2,1.2-2.7
					c0.7-0.7,1.7-0.9,2.7-0.9C505.5,454.8,506.8,456.5,506.8,458.2z M506.8,458.2c0-0.8-0.4-1.7-1-2.2s-1.4-0.7-2.2-0.7
					c-1.5,0.2-2.5,1.5-2.5,2.8s1,2.7,2.5,2.8c0.7,0.1,1.6-0.1,2.2-0.7C506.4,459.8,506.8,459,506.8,458.2z"/>
				<path class="st5" d="M529,463.8c-0.1,1.7-1.5,3.2-3.4,3.3c-0.9,0-1.9-0.4-2.6-1.1c-0.7-0.7-1.1-1.7-1-2.7s0.6-2,1.4-2.6
					c0.8-0.6,1.8-0.8,2.7-0.7C528,460.4,529.2,462.2,529,463.8z M529,463.8c0.1-0.8-0.2-1.7-0.8-2.3c-0.6-0.6-1.4-0.8-2.1-0.8
					c-1.5,0.1-2.6,1.3-2.7,2.6c-0.1,1.3,0.8,2.7,2.3,3c0.7,0.1,1.6,0,2.2-0.5C528.5,465.5,528.9,464.7,529,463.8z"/>
				<path class="st5" d="M422.8,427.9c0,1.7-1.3,3.4-3.2,3.5c-0.9,0.1-1.9-0.2-2.7-0.9c-0.7-0.7-1.2-1.7-1.2-2.7s0.4-2,1.2-2.7
					c0.7-0.7,1.7-0.9,2.7-0.9C421.5,424.5,422.8,426.2,422.8,427.9z M422.8,427.9c0-0.8-0.4-1.7-1-2.2s-1.4-0.7-2.2-0.7
					c-1.5,0.2-2.5,1.5-2.5,2.8s1,2.7,2.5,2.8c0.7,0.1,1.6-0.1,2.2-0.7C422.4,429.5,422.8,428.7,422.8,427.9z"/>
			</g>
			<g>
				<g>
					<ellipse class="st4" cx="351" cy="428.7" rx="51.4" ry="51.4"/>
					<ellipse class="st0" cx="351" cy="428.7" rx="41.2" ry="41.2"/>
					<g>
						
							<rect x="338" y="412.7" transform="matrix(0.1599 -0.9871 0.9871 0.1599 -124.1411 689.2933)" class="st3" width="9.8" height="9.8"/>
						
							<rect x="329.9" y="401.5" transform="matrix(0.1599 -0.9871 0.9871 0.1599 -119.8865 671.886)" class="st3" width="9.8" height="9.8"/>
						
							<rect x="368.5" y="407.8" transform="matrix(0.1599 -0.9871 0.9871 0.1599 -93.6921 715.2766)" class="st3" width="9.8" height="9.8"/>
						
							<rect x="323.7" y="439.8" transform="matrix(0.1599 -0.9871 0.9871 0.1599 -162.8979 697.9489)" class="st3" width="9.8" height="9.8"/>
						
							<rect x="362.3" y="446.1" transform="matrix(0.1599 -0.9871 0.9871 0.1599 -136.7036 741.3396)" class="st3" width="9.8" height="9.8"/>
						
							<rect x="334.9" y="431.8" transform="matrix(0.1599 -0.9871 0.9871 0.1599 -145.6016 702.2706)" class="st3" width="9.8" height="9.8"/>
						
							<rect x="346.1" y="423.8" transform="matrix(0.1599 -0.9871 0.9871 0.1599 -128.295 706.6129)" class="st3" width="9.8" height="9.8"/>
						
							<rect x="357.3" y="415.8" transform="matrix(0.1599 -0.9871 0.9871 0.1599 -110.9885 710.955)" class="st3" width="9.8" height="9.8"/>
						
							<rect x="354.2" y="434.9" transform="matrix(0.1599 -0.9871 0.9871 0.1599 -132.4362 723.9369)" class="st3" width="9.8" height="9.8"/>
					</g>
				</g>
				<g>
					<g>
						<ellipse class="st3" cx="488.9" cy="450.2" rx="51.4" ry="51.4"/>
						<ellipse class="st4" cx="488.9" cy="450.2" rx="51.4" ry="51.4"/>
						<path class="st4" d="M539,462.1c-0.2,1-0.5,2-0.8,3L438,443.7c0.2-1.8,0.6-3.6,1-5.4c6.6-27.6,34.3-44.7,61.9-38.1
							C528.4,406.8,545.5,434.5,539,462.1z"/>
					</g>
					
						<ellipse transform="matrix(0.9725 -0.2327 0.2327 0.9725 -91.3547 126.1367)" class="st0" cx="488.9" cy="450.2" rx="41.2" ry="41.2"/>
					<g>
						
							<rect x="464.7" y="445.3" transform="matrix(0.2312 -0.9729 0.9729 0.2312 -62.0539 821.8804)" class="st3" width="48.6" height="9.8"/>
					</g>
					<g>
						<path class="st3" d="M541.9,461.2l-105.3-25c6.9-29.1,36.1-47,65.1-40.1C530.9,402.9,548.8,432.1,541.9,461.2z"/>
						<path class="st4" d="M541.9,461.2l-105.3-25c6.9-29.1,36.1-47,65.1-40.1C530.9,402.9,548.8,432.1,541.9,461.2z"/>
					</g>
				</g>
				<path class="st5" d="M399.5,480.8c0.3-4.1,1.8-8.3,4.8-11.6c1.5-1.7,3.4-3,5.6-3.8s4.5-0.9,6.7-0.7c2.3,0.3,4.6,1.1,6.5,2.5
					c1.9,1.5,3.3,3.4,4.1,5.4c1.7,4.1,1.9,8.4,1.1,12.5c-0.7-4-1.7-8-3.6-11.2s-4.9-5.3-8.4-5.6c-3.6-0.5-7.1,0.5-10,2.9
					C403.4,473.6,401.2,477.1,399.5,480.8z"/>
			</g>
			<g>
				<path class="st6" d="M296.9,375.9c0.4-5.5,1-11,1.6-16.4c0.6-5.5,1.2-10.9,1.9-16.4c0.6-5.5,1.3-10.9,2-16.4s1.5-10.9,2.2-16.3
					l0.2-1.5l1.5,0.1c11.9,0.7,23.7,1.7,35.5,2.9c5.9,0.6,11.8,1.3,17.7,2.1c5.9,0.8,11.8,1.6,17.6,2.7l-35.5-2.2l-35.5-2.3l1.7-1.4
					c-0.8,5.4-1.6,10.9-2.4,16.3s-1.7,10.9-2.6,16.3s-1.8,10.8-2.8,16.3C298.9,365.1,298,370.5,296.9,375.9z"/>
				<path class="st6" d="M305.4,417.5c1.2-6.6,4.2-12.9,8.2-18.4c1-1.4,2.1-2.7,3.2-4c1.2-1.2,2.4-2.4,3.6-3.6
					c1.3-1.1,2.7-2.2,4-3.2c1.5-0.9,2.9-1.9,4.4-2.8c1.6-0.7,3.1-1.5,4.7-2.2l4.9-1.7l5.1-1c1.7-0.2,3.4-0.3,5.1-0.4
					c6.9-0.2,13.6,1.3,19.8,3.8c-6.6-1.2-13.2-1.9-19.6-1.3c-6.5,0.6-12.7,2.5-18.3,5.7c-5.7,3.1-10.7,7.3-14.9,12.3
					C311.4,405.6,307.9,411.3,305.4,417.5z"/>
				<path class="st6" d="M447.2,431.4c2.1-6.4,5.9-12.2,10.7-17.1c1.2-1.2,2.5-2.3,3.8-3.5c1.3-1.1,2.7-2.1,4.1-3.1
					c1.5-0.9,2.9-1.8,4.4-2.6c1.6-0.7,3.1-1.5,4.7-2.1c1.6-0.5,3.3-1.1,4.9-1.6l5.1-1l5.2-0.3c1.7,0,3.4,0.2,5.1,0.3
					c6.8,0.8,13.3,3.2,19.1,6.5c-6.4-2.1-12.8-3.7-19.3-4s-13,0.7-19,3.1c-6,2.3-11.6,5.8-16.4,10.1
					C454.8,420.5,450.5,425.5,447.2,431.4z"/>
			</g>
		</g>
		<g>
			<g>
				<g>
					<path class="st3" d="M288.5,596.1c-13.2,0-42-3-60.5-26.8c-23.7-30.5-15.2-89.1-14.8-91.5l10.3,1.6
						c-0.1,0.6-8.3,56.6,12.7,83.6c20.5,26.4,57.7,22.6,58.1,22.5l1.2,10.4C295.1,595.8,292.5,596.1,288.5,596.1z"/>
					<path class="st7" d="M288.5,596.1c-13.2,0-42-3-60.5-26.8c-23.7-30.5-15.2-89.1-14.8-91.5l10.3,1.6
						c-0.1,0.6-8.3,56.6,12.7,83.6c20.5,26.4,57.7,22.6,58.1,22.5l1.2,10.4C295.1,595.8,292.5,596.1,288.5,596.1z"/>
				</g>
				<path class="st3" d="M226.6,486.4c-1.9,0-3.8-0.2-5.8-0.5c-17.4-2.8-25.1-13.2-28.5-21.4c-3.4-8.2-4.2-18.2-2.3-29.7l22,3.6
					c-1.1,7.1-0.8,13.3,0.9,17.6c1.2,3,3.7,6.7,11.4,7.9c3.5,0.6,7.3,0.3,11.3-5.8c3.1-4.7,4.9-11,5.6-15l22,3.6
					c-0.5,3.2-2.7,14.2-9,23.8C247.4,480.9,237.7,486.4,226.6,486.4z"/>
				<g>
					<path class="st3" d="M310.3,625.9c0-0.5-18.7-3.5-18.7-3.5l-9-60.8l22.6-8.9L310.3,625.9z"/>
					<path class="st4" d="M310.3,625.9c0-0.5-18.7-3.5-18.7-3.5l-9-60.8l22.6-8.9L310.3,625.9z"/>
				</g>
			</g>
			<g>
				<path class="st3" d="M494.6,626c0-0.5,18.7-3,18.7-3l10.4-60.6l-22.4-9.4L494.6,626z"/>
				<path class="st4" d="M494.6,626c0-0.5,18.7-3,18.7-3l10.4-60.6l-22.4-9.4L494.6,626z"/>
			</g>
			<path class="st3" d="M302.6,539.1c0,0,150.7-6.4,201.7,2c0,0-15,145.9-15.8,148.7c0,0-150-0.4-173.4,0
				C315.1,689.9,302.4,592.9,302.6,539.1z"/>
			<g>
				<path class="st4" d="M348.4,579.1c0,0,82.3-3.3,110.1,1c0,0-8.2,73.6-8.6,75c0,0-81.9-0.2-94.7,0
					C355.2,655.1,349.6,604.8,348.4,579.1z"/>
				<path class="st4" d="M359.6,655.1c-1.9,0-3.4,0-4.4,0c0,0-5.6-50.4-6.8-76c0,0,1.9-0.1,5.1-0.2L359.6,655.1z"/>
				<g>
					<g>
						<g>
							<g>
								<path class="st3" d="M383.9,597.2c-4.6-1.5-9.5,1.1-11,5.7c-1.5,4.6,1.1,9.5,5.7,11s9.5-1.1,11-5.7
									C391,603.6,388.5,598.7,383.9,597.2z M388.6,607.9c-1.3,4.1-5.6,6.3-9.6,5s-6.3-5.6-5-9.6s5.6-6.3,9.6-5
									C387.6,599.5,389.8,603.8,388.6,607.9z M383.9,597.2c-4.6-1.5-9.5,1.1-11,5.7c-1.5,4.6,1.1,9.5,5.7,11s9.5-1.1,11-5.7
									C391,603.6,388.5,598.7,383.9,597.2z M388.6,607.9c-1.3,4.1-5.6,6.3-9.6,5s-6.3-5.6-5-9.6s5.6-6.3,9.6-5
									C387.6,599.5,389.8,603.8,388.6,607.9z M383.9,597.2c-4.6-1.5-9.5,1.1-11,5.7c-1.5,4.6,1.1,9.5,5.7,11s9.5-1.1,11-5.7
									C391,603.6,388.5,598.7,383.9,597.2z M388.6,607.9c-1.3,4.1-5.6,6.3-9.6,5s-6.3-5.6-5-9.6s5.6-6.3,9.6-5
									C387.6,599.5,389.8,603.8,388.6,607.9z M386.8,588c-9.7-3.1-20.1,2.3-23.1,12.1c-3.1,9.7,2.3,20.1,12.1,23.1
									c9.7,3.1,20.1-2.3,23.1-12.1C401.9,601.4,396.5,591.1,386.8,588z M390.9,608.6c-1.7,5.3-7.4,8.3-12.7,6.6
									c-5.3-1.7-8.3-7.4-6.6-12.7c1.7-5.3,7.4-8.3,12.7-6.6S392.6,603.3,390.9,608.6z M389.6,608.2c1.5-4.6-1.1-9.5-5.7-11
									s-9.5,1.1-11,5.7c-1.5,4.6,1.1,9.5,5.7,11S388.1,612.8,389.6,608.2z M388.6,607.9c-1.3,4.1-5.6,6.3-9.6,5s-6.3-5.6-5-9.6
									s5.6-6.3,9.6-5C387.6,599.5,389.8,603.8,388.6,607.9z M383.9,597.2c-4.6-1.5-9.5,1.1-11,5.7c-1.5,4.6,1.1,9.5,5.7,11
									s9.5-1.1,11-5.7C391,603.6,388.5,598.7,383.9,597.2z M388.6,607.9c-1.3,4.1-5.6,6.3-9.6,5s-6.3-5.6-5-9.6s5.6-6.3,9.6-5
									C387.6,599.5,389.8,603.8,388.6,607.9z M383.9,597.2c-4.6-1.5-9.5,1.1-11,5.7c-1.5,4.6,1.1,9.5,5.7,11s9.5-1.1,11-5.7
									C391,603.6,388.5,598.7,383.9,597.2z M388.6,607.9c-1.3,4.1-5.6,6.3-9.6,5s-6.3-5.6-5-9.6s5.6-6.3,9.6-5
									C387.6,599.5,389.8,603.8,388.6,607.9z"/>
								<g>
									<polygon class="st3" points="379.3,623.5 372.5,621.4 371.4,626.3 377.4,628.2 									"/>
									<polygon class="st3" points="367.2,617.2 363.9,610.9 359.6,613.6 362.5,619.2 									"/>
									<polygon class="st3" points="363,604.1 365.2,597.3 360.3,596.2 358.4,602.2 									"/>
									<polygon class="st3" points="369.4,591.9 375.7,588.7 373,584.4 367.4,587.3 									"/>
									<polygon class="st3" points="382.5,587.8 389.2,590 390.4,585.1 384.3,583.2 									"/>
									<polygon class="st3" points="394.6,594.2 397.9,600.5 402.2,597.8 399.2,592.2 									"/>
									<polygon class="st3" points="398.7,607.2 396.6,614 401.5,615.1 403.4,609.1 									"/>
									<polygon class="st3" points="392.4,619.4 386.1,622.7 388.8,627 394.4,624 									"/>
								</g>
							</g>
						</g>
					</g>
				</g>
				<g>
					<g>
						<g>
							<g>
								<path class="st8" d="M413.6,623c-2.7-1.8-6.4-1-8.2,1.7c-1.8,2.7-1,6.4,1.7,8.2s6.4,1,8.1-1.7
									C417.1,628.4,416.4,624.8,413.6,623z M414.8,630.7c-1.6,2.4-4.8,3.1-7.2,1.5s-3.1-4.8-1.5-7.2s4.8-3.1,7.2-1.5
									C415.6,625.1,416.3,628.4,414.8,630.7z M413.6,623c-2.7-1.8-6.4-1-8.2,1.7c-1.8,2.7-1,6.4,1.7,8.2s6.4,1,8.1-1.7
									C417.1,628.4,416.4,624.8,413.6,623z M414.8,630.7c-1.6,2.4-4.8,3.1-7.2,1.5s-3.1-4.8-1.5-7.2s4.8-3.1,7.2-1.5
									C415.6,625.1,416.3,628.4,414.8,630.7z M413.6,623c-2.7-1.8-6.4-1-8.2,1.7c-1.8,2.7-1,6.4,1.7,8.2s6.4,1,8.1-1.7
									C417.1,628.4,416.4,624.8,413.6,623z M414.8,630.7c-1.6,2.4-4.8,3.1-7.2,1.5s-3.1-4.8-1.5-7.2s4.8-3.1,7.2-1.5
									C415.6,625.1,416.3,628.4,414.8,630.7z M417.2,617.5c-5.8-3.7-13.4-2.1-17.2,3.6c-3.7,5.7-2.1,13.4,3.6,17.2
									c5.7,3.7,13.4,2.1,17.2-3.6C424.6,629,422.9,621.3,417.2,617.5z M416.1,631.6c-2,3.1-6.3,4-9.4,2s-4-6.3-2-9.4
									c2-3.1,6.3-4,9.4-2C417.3,624.3,418.2,628.5,416.1,631.6z M415.4,631.1c1.8-2.7,1-6.4-1.7-8.2s-6.4-1-8.2,1.7
									c-1.8,2.7-1,6.4,1.7,8.2S413.6,633.9,415.4,631.1z M414.8,630.7c-1.6,2.4-4.8,3.1-7.2,1.5s-3.1-4.8-1.5-7.2s4.8-3.1,7.2-1.5
									C415.6,625.1,416.3,628.4,414.8,630.7z M413.6,623c-2.7-1.8-6.4-1-8.2,1.7c-1.8,2.7-1,6.4,1.7,8.2s6.4,1,8.1-1.7
									C417.1,628.4,416.4,624.8,413.6,623z M414.8,630.7c-1.6,2.4-4.8,3.1-7.2,1.5s-3.1-4.8-1.5-7.2s4.8-3.1,7.2-1.5
									C415.6,625.1,416.3,628.4,414.8,630.7z M413.6,623c-2.7-1.8-6.4-1-8.2,1.7c-1.8,2.7-1,6.4,1.7,8.2s6.4,1,8.1-1.7
									C417.1,628.4,416.4,624.8,413.6,623z M414.8,630.7c-1.6,2.4-4.8,3.1-7.2,1.5s-3.1-4.8-1.5-7.2s4.8-3.1,7.2-1.5
									C415.6,625.1,416.3,628.4,414.8,630.7z"/>
								<g>
									<polygon class="st8" points="405.9,639.2 401.9,636.6 400.3,639.6 403.9,641.9 									"/>
									<polygon class="st8" points="399.2,632.9 398.2,628.2 394.9,629.2 395.8,633.3 									"/>
									<polygon class="st8" points="398.9,623.7 401.5,619.7 398.5,618 396.2,621.6 									"/>
									<polygon class="st8" points="405.2,616.9 409.9,615.9 408.9,612.7 404.7,613.6 									"/>
									<polygon class="st8" points="414.4,616.6 418.4,619.2 420,616.3 416.5,613.9 									"/>
									<polygon class="st8" points="421.1,622.9 422.1,627.6 425.4,626.6 424.5,622.5 									"/>
									<polygon class="st8" points="421.5,632.2 418.8,636.2 421.8,637.8 424.1,634.2 									"/>
									<polygon class="st8" points="415.1,638.9 410.5,639.9 411.4,643.1 415.6,642.3 									"/>
								</g>
							</g>
						</g>
					</g>
				</g>
			</g>
			<g>
				<polygon class="st3" points="500.6,672.9 506.4,674 523,561.7 516.4,560.5 				"/>
				<g>
					<path class="st3" d="M449.8,655.1l8.6-75l57.9-19.6c0,0-15.8,113.6-15.8,112.4L449.8,655.1z"/>
					<path class="st7" d="M449.8,655.1l8.6-75l57.9-19.6c0,0-15.8,113.6-15.8,112.4L449.8,655.1z"/>
				</g>
			</g>
			<path class="st6" d="M309.5,583.2c-0.9-6.2-1.5-12.5-1.8-18.7c-0.2-3.1-0.3-6.3-0.3-9.4c-0.1-3.1-0.1-6.3,0-9.4v-0.8h0.8
				c11.5-0.6,23-1.4,34.5-1.9c11.5-0.6,23-1.1,34.5-1.4c-11.5,1-23,1.9-34.5,2.8c-11.5,0.9-23,1.5-34.5,2.3l0.8-0.9v9.4l0.1,9.4
				c0,3.1,0.1,6.3,0.2,9.4L309.5,583.2z"/>
			<path class="st6" d="M466.5,581.2c3.6-1.7,7.2-3.3,10.9-4.8c3.7-1.5,7.4-2.9,11.1-4.2c3.8-1.3,7.5-2.5,11.4-3.6
				c3.8-1.1,7.7-2.1,11.6-2.7l1-0.2l-0.2,0.9c-0.9,4.9-1.9,9.7-3,14.5c0.4-4.9,1-9.8,1.6-14.7l0.8,0.8c-3.8,0.9-7.6,2-11.4,3.1
				s-7.5,2.3-11.3,3.5L466.5,581.2z"/>
			<g>
				<polygon class="st5" points="334.5,539.4 335.5,558.2 336.4,576.9 337.8,614.5 338.9,652 339.4,670.8 339.7,689.5 338.7,670.8 
					337.9,652 336.4,614.5 335.3,577 334.9,558.2 				"/>
				<path class="st5" d="M329.2,550.7c0.4,1.6-0.6,3.5-2.4,4.1c-0.9,0.3-1.9,0.2-2.8-0.3s-1.5-1.4-1.7-2.4s0-2.1,0.6-2.8
					c0.6-0.8,1.5-1.3,2.4-1.4C327.3,547.7,328.9,549.1,329.2,550.7z M329.2,550.7c-0.2-0.8-0.7-1.5-1.4-1.9
					c-0.7-0.4-1.6-0.4-2.3-0.2c-1.5,0.5-2.2,2-1.9,3.3c0.2,1.3,1.5,2.4,3,2.3c0.7-0.1,1.5-0.4,2-1.1
					C329.1,552.4,329.3,551.5,329.2,550.7z"/>
				<path class="st5" d="M330.5,573.2c0.4,1.6-0.6,3.5-2.4,4.1c-0.9,0.3-1.9,0.2-2.8-0.3s-1.5-1.4-1.7-2.4s0-2.1,0.6-2.8
					c0.6-0.8,1.5-1.3,2.4-1.4C328.5,570.2,330.2,571.6,330.5,573.2z M330.5,573.2c-0.2-0.8-0.7-1.5-1.4-1.9
					c-0.7-0.4-1.6-0.4-2.3-0.2c-1.5,0.5-2.2,2-1.9,3.3c0.2,1.3,1.5,2.4,3,2.3c0.7-0.1,1.5-0.4,2-1.1
					C330.4,574.9,330.6,574,330.5,573.2z"/>
				<path class="st5" d="M331.3,597.1c0.4,1.6-0.6,3.5-2.4,4.1c-0.9,0.3-1.9,0.2-2.8-0.3s-1.5-1.4-1.7-2.4s0-2.1,0.6-2.8
					c0.6-0.8,1.5-1.3,2.4-1.4C329.4,594,331,595.5,331.3,597.1z M331.3,597.1c-0.2-0.8-0.7-1.5-1.4-1.9c-0.7-0.4-1.6-0.4-2.3-0.2
					c-1.5,0.5-2.2,2-1.9,3.3c0.2,1.3,1.5,2.4,3,2.3c0.7-0.1,1.5-0.4,2-1.1S331.4,597.9,331.3,597.1z"/>
				<path class="st5" d="M332.1,621c0.4,1.6-0.6,3.5-2.4,4.1c-0.9,0.3-1.9,0.2-2.8-0.3s-1.5-1.4-1.7-2.4s0-2.1,0.6-2.8
					c0.6-0.8,1.5-1.3,2.4-1.4C330.2,617.9,331.8,619.3,332.1,621z M332.1,621c-0.2-0.8-0.7-1.5-1.4-1.9c-0.7-0.4-1.6-0.4-2.3-0.2
					c-1.5,0.5-2.2,2-1.9,3.3c0.2,1.3,1.5,2.4,3,2.3c0.7-0.1,1.5-0.4,2-1.1C332.1,622.6,332.3,621.8,332.1,621z"/>
				<path class="st5" d="M332.9,644.8c0.4,1.6-0.6,3.5-2.4,4.1c-0.9,0.3-1.9,0.2-2.8-0.3s-1.5-1.4-1.7-2.4s0-2.1,0.6-2.8
					c0.6-0.8,1.5-1.3,2.4-1.4C331,641.8,332.6,643.2,332.9,644.8z M332.9,644.8c-0.2-0.8-0.7-1.5-1.4-1.9c-0.7-0.4-1.6-0.4-2.3-0.2
					c-1.5,0.5-2.2,2-1.9,3.3c0.2,1.3,1.5,2.4,3,2.3c0.7-0.1,1.5-0.4,2-1.1C332.9,646.5,333.1,645.6,332.9,644.8z"/>
				<path class="st5" d="M333.7,668.7c0.4,1.6-0.6,3.5-2.4,4.1c-0.9,0.3-1.9,0.2-2.8-0.3s-1.5-1.4-1.7-2.4s0-2.1,0.6-2.8
					c0.6-0.8,1.5-1.3,2.4-1.4C331.8,665.7,333.4,667.1,333.7,668.7z M333.7,668.7c-0.2-0.8-0.7-1.5-1.4-1.9
					c-0.7-0.4-1.6-0.4-2.3-0.2c-1.5,0.5-2.2,2-1.9,3.3c0.2,1.3,1.5,2.4,3,2.3c0.7-0.1,1.5-0.4,2-1.1
					C333.7,670.4,333.9,669.5,333.7,668.7z"/>
			</g>
		</g>
		<g>
			
				<rect x="255.4" y="717.9" transform="matrix(0.957 -0.29 0.29 0.957 -196.8124 118.0668)" class="st3" width="89.2" height="10.4"/>
			
				<rect x="255.4" y="717.9" transform="matrix(0.957 -0.29 0.29 0.957 -196.8124 118.0668)" class="st7" width="89.2" height="10.4"/>
			
				<rect x="292.4" y="715.4" transform="matrix(0.953 -0.3031 0.3031 0.953 -205.1891 124.2248)" class="st3" width="10.4" height="15.5"/>
			<g>
				<polygon class="st3" points="258.1,755.6 236.1,660.3 169.6,676 202.3,769 				"/>
				<g>
					<polygon class="st3" points="272.9,750.8 258.1,755.6 236.1,660.3 257.3,665.3 					"/>
					<polygon class="st4" points="272.9,750.8 258.1,755.6 236.1,660.3 257.3,665.3 					"/>
				</g>
			</g>
			<circle class="st3" cx="342.7" cy="710.2" r="11.3"/>
		</g>
		<g>
			
				<rect x="495" y="678.4" transform="matrix(0.292 -0.9564 0.9564 0.292 -337.3267 990.2276)" class="st3" width="10.4" height="89.2"/>
			
				<rect x="495" y="678.4" transform="matrix(0.292 -0.9564 0.9564 0.292 -337.3267 990.2276)" class="st7" width="10.4" height="89.2"/>
			
				<rect x="494.8" y="717.6" transform="matrix(0.3052 -0.9523 0.9523 0.3052 -339.1717 980.8298)" class="st3" width="15.5" height="10.4"/>
			<g>
				<polygon class="st3" points="542,755.6 564.3,660.2 630.7,676.1 597.8,769 				"/>
				<g>
					<polygon class="st3" points="527.3,750.7 542,755.6 564.3,660.2 543,665.2 					"/>
					<polygon class="st4" points="527.3,750.7 542,755.6 564.3,660.2 543,665.2 					"/>
				</g>
			</g>
			<path class="st3" d="M446.3,709.9c0,6.2,5,11.3,11.3,11.3c6.2,0,11.3-5,11.3-11.3c0-6.2-5-11.3-11.3-11.3
				C451.4,698.6,446.3,703.6,446.3,709.9z"/>
		</g>
		<g>
			<g>
				<path class="st3" d="M531.7,592.2c0.3-0.3,27.7-25.7,59.9-17c33,8.9,60.2,58.6,60.5,59.1l9.2-5c-1.2-2.2-29.6-54.1-66.9-64.2
					c-38-10.2-68.5,18.3-69.8,19.5L531.7,592.2z"/>
				<path class="st7" d="M531.7,592.2c0.3-0.3,27.7-25.7,59.9-17c33,8.9,60.2,58.6,60.5,59.1l9.2-5c-1.2-2.2-29.6-54.1-66.9-64.2
					c-38-10.2-68.5,18.3-69.8,19.5L531.7,592.2z"/>
			</g>
			<path class="st3" d="M639.9,684.4l19.7-10.4c-1.9-3.6-4.2-9.8-4.6-15.3c-0.4-7.2,2.4-9.8,5.6-11.4c6.9-3.7,11-2.2,13.9-0.5
				c4,2.3,8,7.1,11.3,13.5l19.7-10.4c-5.4-10.2-12-17.7-19.7-22.3c-7.7-4.5-20.1-8.2-35.6,0c-12.1,6.4-18.3,18-17.4,32.5
				C633.5,671.4,638.5,681.5,639.9,684.4z"/>
		</g>
		<g>
			<path class="st0" d="M535.8,557.5c4.3-3,8.7-5.7,13.1-8.5c4.4-2.8,8.8-5.4,13.3-8.1c4.5-2.6,9-5.2,13.5-7.7l6.8-3.7
				c2.3-1.2,4.6-2.4,6.9-3.6c-2.1,1.5-4.3,2.9-6.5,4.3l-6.6,4.2c-4.4,2.8-8.8,5.4-13.3,8.1c-4.5,2.6-9,5.2-13.5,7.7
				C545.1,552.7,540.5,555.1,535.8,557.5z"/>
			<path class="st0" d="M524.5,600.1c6.1,3.5,11.9,7.4,17.7,11.5c5.7,4.1,11.3,8.3,16.6,13c-6.1-3.5-11.9-7.4-17.7-11.5
				C535.4,608.9,529.8,604.7,524.5,600.1z"/>
			<path class="st0" d="M534.6,594.8c4.7,1.4,9.4,3.1,14,4.7c4.7,1.6,9.3,3.4,13.9,5.2c4.6,1.8,9.2,3.6,13.7,5.6l6.8,2.9
				c2.2,1,4.5,2,6.7,3.1c-2.4-0.7-4.7-1.5-7.1-2.3l-7-2.4c-4.7-1.6-9.3-3.4-13.9-5.2c-4.6-1.8-9.2-3.6-13.7-5.6
				C543.6,598.9,539,597,534.6,594.8z"/>
			<path class="st0" d="M548,561.4c4.5-1.2,9.1-2.2,13.7-3.1c4.6-1,9.2-1.8,13.8-2.6s9.2-1.6,13.8-2.2l6.9-1c2.3-0.3,4.6-0.6,7-0.8
				c-2.3,0.6-4.5,1.1-6.8,1.7l-6.9,1.5c-4.6,1-9.2,1.8-13.8,2.6s-9.2,1.6-13.8,2.2C557.3,560.4,552.7,561,548,561.4z"/>
		</g>
	</g>
	<g>
		<g>
			<path class="st0" d="M438.7,589.8c0.8-3.7,2.1-7.2,3.7-10.7c1.6-3.4,3.6-6.7,6.1-9.5c2.5-2.9,5.5-5.4,9.1-6.7
				c3.6-1.4,7.7-1.3,11.3,0.2c3.6,1.4,6.5,4.5,8,8c0.8,1.8,1.3,3.6,1.5,5.6c0.2,1.9,0.1,3.9-0.7,5.8c-0.4,0.9-1,1.8-1.9,2.4
				c-0.4,0.3-1,0.5-1.5,0.6s-1.1,0.1-1.6-0.1c-1.1-0.5-1.7-1.4-2.1-2.2c-0.5-0.9-0.8-1.8-1-2.7c-1-3.7-1.1-7.6-0.9-11.4
				c0.2-3.8,0.9-7.6,2-11.2c1.1-3.6,2.6-7.2,4.6-10.4s4.6-6.1,7.8-8.3c3.1-2.2,6.8-3.6,10.6-4.2c3.7-0.6,7.6-0.7,11.3,0
				c3.7,0.7,7.3,2.1,10.6,4c6.5,3.8,12,9.3,16,15.7c-4.2-6.2-9.7-11.6-16.3-15.2c-3.3-1.8-6.8-3.1-10.5-3.8s-7.4-0.6-11.1,0.1
				c-3.7,0.6-7.2,2-10.2,4.1s-5.5,4.9-7.5,8.1c-3.9,6.3-5.8,13.8-6.3,21.2c-0.2,3.7-0.1,7.5,0.8,11.1c0.2,0.9,0.5,1.7,1,2.5
				c0.4,0.8,1,1.5,1.7,1.8c0.3,0.1,0.7,0.1,1.2,0.1c0.4-0.1,0.8-0.2,1.1-0.4c0.7-0.4,1.2-1.2,1.5-2c0.7-1.6,0.8-3.5,0.6-5.3
				c-0.2-1.8-0.7-3.6-1.4-5.3c-1.5-3.3-4.1-6.2-7.5-7.6c-3.4-1.4-7.3-1.5-10.8-0.3c-3.5,1.3-6.5,3.7-9,6.4c-2.5,2.8-4.5,6-6.2,9.3
				C441,582.6,439.6,586.1,438.7,589.8z"/>
		</g>
		<g>
			<path class="st0" d="M270.5,637c1.8-3.3,4.4-6.1,7.4-8.3c1.5-1.1,3.1-2.1,4.8-2.9c1.7-0.8,3.5-1.5,5.3-1.9
				c3.7-0.9,7.6-0.8,11.3,0.3c3.6,1.1,6.9,3.3,9.6,6c2.6,2.7,4.6,6.1,6,9.6c1.3,3.5,2.1,7.3,1.8,11.2c-0.1,1-0.2,1.9-0.5,2.9
				c-0.3,0.9-0.7,1.9-1.5,2.6c-0.7,0.8-1.8,1.2-2.8,1.3c-1,0-2-0.2-2.9-0.7s-1.7-1.3-2.1-2.2s-0.6-1.9-0.6-2.9c-0.1-2,0.4-3.9,1-5.7
				c1.2-3.6,3.2-6.9,5.5-9.9s5.1-5.6,8.2-7.9c3.1-2.2,6.5-4,10.2-5c3.6-1.1,7.5-1.4,11.3-0.9c3.7,0.5,7.5,1.5,10.8,3.4
				c1.7,0.9,3.2,2,4.6,3.3c1.4,1.2,2.8,2.6,3.9,4.1c2.4,2.9,4.2,6.3,5.7,9.7c1.4,3.5,2.5,7.1,3.1,10.8c-0.7-3.7-1.8-7.3-3.3-10.7
				s-3.4-6.6-5.8-9.5c-1.2-1.4-2.5-2.8-3.9-3.9c-1.4-1.2-2.9-2.3-4.6-3.1c-3.2-1.8-6.9-2.8-10.5-3.2c-3.7-0.4-7.4-0.1-10.9,1
				c-3.5,1-6.9,2.7-9.9,4.9s-5.7,4.8-7.9,7.7c-2.3,2.9-4.1,6.2-5.3,9.6c-0.6,1.7-1,3.5-0.9,5.3c0,1.8,0.7,3.6,2.2,4.3
				c0.7,0.4,1.6,0.6,2.5,0.6c0.8,0,1.6-0.4,2.2-1c1.2-1.2,1.6-3.1,1.8-4.9c0.3-3.6-0.5-7.4-1.8-10.8c-1.3-3.4-3.2-6.7-5.8-9.4
				c-2.5-2.7-5.7-4.8-9.2-5.9c-3.5-1.1-7.3-1.2-10.9-0.4s-7.1,2.3-10.1,4.5C275,631,272.4,633.8,270.5,637z"/>
		</g>
		<g>
			<path class="st0" d="M186.2,197.2c0-3.8-0.5-7.5-1.3-11.2s-2.1-7.2-3.8-10.5s-4.1-6.3-7.2-8.4c-3.1-2-6.9-2.9-10.5-2.3
				c-3.6,0.5-6.9,2.7-9.1,5.6c-1.1,1.4-2,3.1-2.6,4.8s-0.9,3.6-0.7,5.3c0.1,0.9,0.5,1.7,1,2.3c0.3,0.3,0.6,0.5,1,0.7
				c0.4,0.1,0.8,0.2,1.1,0.2c0.7-0.1,1.5-0.7,2-1.3c0.6-0.7,1.1-1.4,1.5-2.2c1.7-3.2,2.8-6.9,3.4-10.5c1.3-7.3,1.2-15-1.1-22.1
				c-1.1-3.5-2.9-6.9-5.4-9.6c-2.4-2.8-5.5-4.9-8.9-6.4s-7-2.5-10.8-2.7c-3.7-0.3-7.5,0.2-11.1,1.2c-7.2,2-13.9,5.9-19.5,10.9
				c5.4-5.2,12.1-9.2,19.3-11.4c3.6-1,7.5-1.5,11.2-1.3c3.8,0.2,7.5,1.2,11,2.7s6.8,3.7,9.3,6.6c2.5,2.9,4.4,6.3,5.6,9.9
				c1.2,3.6,1.8,7.4,2,11.2s-0.1,7.6-0.8,11.3s-1.7,7.4-3.6,10.8c-0.5,0.8-1,1.7-1.7,2.4s-1.5,1.5-2.6,1.6c-0.6,0.1-1.1-0.1-1.6-0.2
				c-0.5-0.2-1-0.5-1.3-0.9c-0.7-0.8-1.1-1.8-1.2-2.8c-0.3-2,0.1-3.9,0.7-5.8c0.7-1.8,1.6-3.5,2.8-5c2.3-3,5.8-5.3,9.7-5.9
				c3.8-0.6,7.8,0.4,11,2.5c3.2,2.2,5.5,5.3,7.2,8.7s2.8,7,3.6,10.7C185.9,189.7,186.3,193.5,186.2,197.2z"/>
		</g>
		<g>
			<path class="st0" d="M588.3,292.2c-3.7-0.9-7.4-1.3-11.2-1.4c-3.8,0-7.5,0.3-11.1,1.2c-3.6,0.9-7.1,2.5-9.8,5s-4.4,6-4.7,9.7
				s1,7.3,3.3,10.2c1.1,1.4,2.5,2.7,4.1,3.7c1.5,1,3.3,1.7,5,1.9c0.9,0.1,1.8,0,2.5-0.5c0.4-0.2,0.6-0.5,0.9-0.8
				c0.2-0.3,0.4-0.7,0.4-1.1c0.1-0.7-0.3-1.6-0.8-2.3c-0.5-0.7-1.1-1.4-1.8-2c-2.7-2.5-6-4.3-9.4-5.8c-6.8-3-14.3-4.7-21.7-4.1
				c-3.7,0.3-7.4,1.2-10.6,3c-3.3,1.7-6.1,4.2-8.3,7.2c-2.3,2.9-4.1,6.3-5.2,9.8c-1.1,3.6-1.6,7.3-1.5,11c0.2,7.5,2.5,14.9,6.1,21.5
				c-3.8-6.5-6.2-13.9-6.6-21.4c-0.2-3.8,0.2-7.6,1.3-11.2c1-3.7,2.9-7.1,5.2-10.1c2.2-3.1,5.2-5.7,8.6-7.5c3.4-1.8,7.2-2.8,11-3.1
				c3.8-0.3,7.6,0,11.4,0.7c3.7,0.7,7.4,1.9,10.9,3.4c3.5,1.6,6.8,3.4,9.7,6c0.7,0.7,1.4,1.4,1.9,2.2c0.5,0.8,1.1,1.8,1,2.9
				c-0.1,0.6-0.3,1.1-0.6,1.5s-0.7,0.8-1.2,1.1c-0.9,0.5-2,0.6-3,0.6c-2-0.2-3.8-1-5.4-2.1c-1.6-1.1-3.1-2.4-4.3-3.9
				c-2.4-3-3.8-6.9-3.4-10.8c0.4-3.8,2.2-7.5,5-10.1c2.9-2.6,6.5-4.1,10.1-5c3.7-0.9,7.5-1.1,11.3-1
				C580.9,290.8,584.7,291.3,588.3,292.2z"/>
		</g>
		<g>
			<path class="st0" d="M475.6,174.4c-1.2-4.3-1.3-8.9-0.6-13.4c0.4-2.2,0.9-4.4,1.7-6.5c0.8-2.1,1.8-4.2,3-6.1
				c2.4-3.8,5.8-7.1,9.9-9.1c4-2.1,8.7-3,13.2-2.8c4.5,0.1,9,1.3,13.1,3.2c4.1,1.9,8,4.5,10.9,8c0.7,0.9,1.4,1.8,1.9,2.9
				c0.5,1,0.9,2.2,0.9,3.4s-0.5,2.5-1.3,3.4c-0.9,0.8-1.9,1.5-3,1.9c-1.2,0.4-2.5,0.3-3.6-0.2c-1.1-0.4-2.1-1.1-3-1.9
				c-1.7-1.6-2.9-3.6-3.9-5.6c-2-4.1-3.1-8.6-3.6-13.1s-0.4-9.1,0.4-13.5c0.8-4.5,2.3-8.8,4.5-12.8s5.3-7.5,8.8-10.2
				c3.6-2.8,7.7-4.9,12.1-6.1c4.4-1.2,9-1.4,13.4-0.9c4.5,0.5,8.8,1.8,13,3.6c4.1,1.8,8.1,3.9,11.7,6.6c-3.6-2.6-7.6-4.7-11.8-6.4
				c-4.1-1.7-8.5-2.8-12.9-3.3s-8.9-0.2-13.2,1s-8.3,3.3-11.7,6.1c-3.5,2.7-6.4,6.2-8.6,10c-2.2,3.9-3.6,8.1-4.4,12.5
				c-0.7,4.4-0.9,8.9-0.3,13.3c0.5,4.4,1.6,8.8,3.5,12.7c1,2,2.1,3.9,3.7,5.4c0.8,0.7,1.7,1.4,2.6,1.7c1,0.4,2,0.4,3,0.1
				c1-0.3,1.9-0.9,2.6-1.6c0.7-0.7,1.1-1.7,1.1-2.7s-0.3-2.1-0.8-3c-0.5-1-1.1-1.9-1.8-2.7c-2.8-3.4-6.6-5.9-10.6-7.8
				c-4-1.9-8.4-3-12.8-3.2s-8.9,0.7-12.8,2.7c-4,2-7.3,5.1-9.7,8.8c-2.4,3.7-4.1,7.9-4.9,12.3C474.5,165.5,474.5,170.1,475.6,174.4z
				"/>
		</g>
		<g>
			<g>
				<g>
					<g>
						<path class="st9" d="M264.4,637.4c-4.1-1.3-8.4,1-9.7,5.1s1,8.4,5.1,9.7c4.1,1.3,8.4-1,9.7-5.1
							C270.7,643,268.5,638.7,264.4,637.4z M268.5,646.8c-1.1,3.6-4.9,5.6-8.5,4.4c-3.6-1.1-5.6-4.9-4.4-8.5
							c1.1-3.6,4.9-5.6,8.5-4.4C267.7,639.4,269.7,643.2,268.5,646.8z M264.4,637.4c-4.1-1.3-8.4,1-9.7,5.1s1,8.4,5.1,9.7
							c4.1,1.3,8.4-1,9.7-5.1C270.7,643,268.5,638.7,264.4,637.4z M268.5,646.8c-1.1,3.6-4.9,5.6-8.5,4.4c-3.6-1.1-5.6-4.9-4.4-8.5
							c1.1-3.6,4.9-5.6,8.5-4.4C267.7,639.4,269.7,643.2,268.5,646.8z M264.4,637.4c-4.1-1.3-8.4,1-9.7,5.1s1,8.4,5.1,9.7
							c4.1,1.3,8.4-1,9.7-5.1C270.7,643,268.5,638.7,264.4,637.4z M268.5,646.8c-1.1,3.6-4.9,5.6-8.5,4.4c-3.6-1.1-5.6-4.9-4.4-8.5
							c1.1-3.6,4.9-5.6,8.5-4.4C267.7,639.4,269.7,643.2,268.5,646.8z M267,629.2c-8.6-2.7-17.8,2.1-20.5,10.7
							c-2.7,8.6,2.1,17.8,10.7,20.5s17.8-2.1,20.5-10.7C280.3,641.1,275.6,631.9,267,629.2z M270.6,647.5c-1.5,4.7-6.5,7.3-11.2,5.8
							c-4.7-1.5-7.3-6.5-5.8-11.2s6.5-7.3,11.2-5.8C269.4,637.7,272.1,642.8,270.6,647.5z M269.4,647.1c1.3-4.1-1-8.4-5.1-9.7
							s-8.4,1-9.7,5.1s1,8.4,5.1,9.7C263.8,653.4,268.2,651.2,269.4,647.1z M268.5,646.8c-1.1,3.6-4.9,5.6-8.5,4.4
							c-3.6-1.1-5.6-4.9-4.4-8.5c1.1-3.6,4.9-5.6,8.5-4.4C267.7,639.4,269.7,643.2,268.5,646.8z M264.4,637.4
							c-4.1-1.3-8.4,1-9.7,5.1s1,8.4,5.1,9.7c4.1,1.3,8.4-1,9.7-5.1C270.7,643,268.5,638.7,264.4,637.4z M268.5,646.8
							c-1.1,3.6-4.9,5.6-8.5,4.4c-3.6-1.1-5.6-4.9-4.4-8.5c1.1-3.6,4.9-5.6,8.5-4.4C267.7,639.4,269.7,643.2,268.5,646.8z
							 M264.4,637.4c-4.1-1.3-8.4,1-9.7,5.1s1,8.4,5.1,9.7c4.1,1.3,8.4-1,9.7-5.1C270.7,643,268.5,638.7,264.4,637.4z M268.5,646.8
							c-1.1,3.6-4.9,5.6-8.5,4.4c-3.6-1.1-5.6-4.9-4.4-8.5c1.1-3.6,4.9-5.6,8.5-4.4C267.7,639.4,269.7,643.2,268.5,646.8z"/>
						<g>
							<polygon class="st9" points="260.3,660.6 254.4,658.8 253.4,663.1 258.7,664.8 							"/>
							<polygon class="st9" points="249.6,655 246.7,649.5 242.9,651.8 245.5,656.8 							"/>
							<polygon class="st9" points="246,643.5 247.8,637.5 243.5,636.5 241.8,641.8 							"/>
							<polygon class="st9" points="251.6,632.7 257.1,629.8 254.8,626 249.8,628.6 							"/>
							<polygon class="st9" points="263.1,629.1 269.1,630.9 270.1,626.6 264.8,624.9 							"/>
							<polygon class="st9" points="273.9,634.7 276.8,640.2 280.6,637.9 278,632.9 							"/>
							<polygon class="st9" points="277.5,646.2 275.6,652.2 280,653.2 281.7,647.9 							"/>
							<polygon class="st9" points="271.9,657 266.4,659.9 268.7,663.7 273.7,661.1 							"/>
						</g>
					</g>
				</g>
			</g>
		</g>
		<g>
			<g>
				<path class="st0" d="M566.3,585.4c8.2-11.1,5.9-26.7-5.2-34.9c-11.1-8.2-26.7-5.9-34.9,5.2c-8.2,11.1-5.9,26.7,5.2,34.9
					C542.5,598.7,558.1,596.4,566.3,585.4z M555.6,577.4c-3.8,5.2-11.1,6.2-16.3,2.4s-6.2-11.1-2.4-16.3s11.1-6.2,16.3-2.4
					C558.4,565,559.5,572.3,555.6,577.4z"/>
				<polygon class="st0" points="535.9,592.6 528.2,586.8 524.5,592.6 531.4,597.7 				"/>
				<polygon class="st0" points="523.1,579.1 521.7,569.6 515.1,571.1 516.3,579.5 				"/>
				<polygon class="st0" points="523.7,560.5 529.4,552.8 523.6,549.2 518.5,556.1 				"/>
				<polygon class="st0" points="537.1,547.8 546.6,546.4 545.1,539.8 536.7,541 				"/>
				<polygon class="st0" points="555.7,548.3 563.4,554.1 567,548.3 560.1,543.2 				"/>
				<polygon class="st0" points="568.4,561.8 569.8,571.3 576.4,569.8 575.2,561.3 				"/>
				<polygon class="st0" points="567.9,580.3 562.2,588 567.9,591.7 573,584.8 				"/>
				<polygon class="st0" points="554.4,593.1 544.9,594.5 546.4,601.1 554.9,599.9 				"/>
			</g>
			<path class="st0" d="M537.3,571.7l5.3,6.7l8.4-1.3l3.1-7.9l-5.3-6.7l-8.4,1.2L537.3,571.7z M547.4,568.3c1.2,0.9,1.5,2.6,0.6,3.8
				s-2.6,1.5-3.8,0.6s-1.4-2.6-0.6-3.8C544.5,567.6,546.2,567.4,547.4,568.3z"/>
		</g>
		<g>
			<g>
				<g>
					<g>
						<path class="st0" d="M585,99.6c-3.6-1.1-7.4,0.9-8.5,4.4c-1.1,3.6,0.9,7.4,4.4,8.5c3.6,1.1,7.4-0.9,8.5-4.4
							S588.6,100.8,585,99.6z M588.6,107.9c-1,3.1-4.3,4.9-7.5,3.9c-3.1-1-4.9-4.3-3.9-7.5c1-3.1,4.3-4.9,7.5-3.9
							C587.9,101.4,589.6,104.7,588.6,107.9z M585,99.6c-3.6-1.1-7.4,0.9-8.5,4.4c-1.1,3.6,0.9,7.4,4.4,8.5c3.6,1.1,7.4-0.9,8.5-4.4
							S588.6,100.8,585,99.6z M588.6,107.9c-1,3.1-4.3,4.9-7.5,3.9c-3.1-1-4.9-4.3-3.9-7.5c1-3.1,4.3-4.9,7.5-3.9
							C587.9,101.4,589.6,104.7,588.6,107.9z M585,99.6c-3.6-1.1-7.4,0.9-8.5,4.4c-1.1,3.6,0.9,7.4,4.4,8.5c3.6,1.1,7.4-0.9,8.5-4.4
							S588.6,100.8,585,99.6z M588.6,107.9c-1,3.1-4.3,4.9-7.5,3.9c-3.1-1-4.9-4.3-3.9-7.5c1-3.1,4.3-4.9,7.5-3.9
							C587.9,101.4,589.6,104.7,588.6,107.9z M587.3,92.5c-7.5-2.4-15.5,1.8-17.9,9.3s1.8,15.5,9.3,17.9s15.5-1.8,17.9-9.3
							C598.9,102.9,594.8,94.8,587.3,92.5z M590.4,108.4c-1.3,4.1-5.7,6.4-9.8,5.1s-6.4-5.7-5.1-9.8c1.3-4.1,5.7-6.4,9.8-5.1
							S591.7,104.3,590.4,108.4z M589.4,108.1c1.1-3.6-0.9-7.4-4.4-8.5c-3.6-1.1-7.4,0.9-8.5,4.4c-1.1,3.6,0.9,7.4,4.4,8.5
							C584.5,113.7,588.3,111.7,589.4,108.1z M588.6,107.9c-1,3.1-4.3,4.9-7.5,3.9c-3.1-1-4.9-4.3-3.9-7.5c1-3.1,4.3-4.9,7.5-3.9
							C587.9,101.4,589.6,104.7,588.6,107.9z M585,99.6c-3.6-1.1-7.4,0.9-8.5,4.4c-1.1,3.6,0.9,7.4,4.4,8.5c3.6,1.1,7.4-0.9,8.5-4.4
							S588.6,100.8,585,99.6z M588.6,107.9c-1,3.1-4.3,4.9-7.5,3.9c-3.1-1-4.9-4.3-3.9-7.5c1-3.1,4.3-4.9,7.5-3.9
							C587.9,101.4,589.6,104.7,588.6,107.9z M585,99.6c-3.6-1.1-7.4,0.9-8.5,4.4c-1.1,3.6,0.9,7.4,4.4,8.5c3.6,1.1,7.4-0.9,8.5-4.4
							S588.6,100.8,585,99.6z M588.6,107.9c-1,3.1-4.3,4.9-7.5,3.9c-3.1-1-4.9-4.3-3.9-7.5c1-3.1,4.3-4.9,7.5-3.9
							C587.9,101.4,589.6,104.7,588.6,107.9z"/>
						<g>
							<polygon class="st0" points="581.5,120 576.2,118.3 575.3,122.1 580,123.6 							"/>
							<polygon class="st0" points="572.1,115.1 569.5,110.2 566.2,112.3 568.5,116.6 							"/>
							<polygon class="st0" points="568.9,104.9 570.5,99.7 566.7,98.8 565.2,103.5 							"/>
							<polygon class="st0" points="573.8,95.5 578.6,93 576.6,89.7 572.2,91.9 							"/>
							<polygon class="st0" points="583.9,92.3 589.1,94 590,90.2 585.4,88.7 							"/>
							<polygon class="st0" points="593.3,97.2 595.8,102.1 599.2,100.1 596.9,95.7 							"/>
							<polygon class="st0" points="596.5,107.4 594.8,112.6 598.6,113.5 600.1,108.8 							"/>
							<polygon class="st0" points="591.6,116.8 586.7,119.3 588.8,122.6 593.1,120.4 							"/>
						</g>
					</g>
				</g>
			</g>
		</g>
		<g>
			<g>
				<g>
					<g>
						<path class="st0" d="M515.4,359.8c-3.6-1.1-7.4,0.9-8.5,4.4c-1.1,3.6,0.9,7.4,4.4,8.5c3.6,1.1,7.4-0.9,8.5-4.4
							C521,364.7,519,360.9,515.4,359.8z M519,368c-1,3.1-4.3,4.9-7.5,3.9c-3.1-1-4.9-4.3-3.9-7.5c1-3.1,4.3-4.9,7.5-3.9
							C518.3,361.6,520,364.9,519,368z M515.4,359.8c-3.6-1.1-7.4,0.9-8.5,4.4c-1.1,3.6,0.9,7.4,4.4,8.5c3.6,1.1,7.4-0.9,8.5-4.4
							C521,364.7,519,360.9,515.4,359.8z M519,368c-1,3.1-4.3,4.9-7.5,3.9c-3.1-1-4.9-4.3-3.9-7.5c1-3.1,4.3-4.9,7.5-3.9
							C518.3,361.6,520,364.9,519,368z M515.4,359.8c-3.6-1.1-7.4,0.9-8.5,4.4c-1.1,3.6,0.9,7.4,4.4,8.5c3.6,1.1,7.4-0.9,8.5-4.4
							C521,364.7,519,360.9,515.4,359.8z M519,368c-1,3.1-4.3,4.9-7.5,3.9c-3.1-1-4.9-4.3-3.9-7.5c1-3.1,4.3-4.9,7.5-3.9
							C518.3,361.6,520,364.9,519,368z M517.7,352.6c-7.5-2.4-15.5,1.8-17.9,9.3s1.8,15.5,9.3,17.9c7.5,2.4,15.5-1.8,17.9-9.3
							S525.2,355,517.7,352.6z M520.8,368.6c-1.3,4.1-5.7,6.4-9.8,5.1c-4.1-1.3-6.4-5.7-5.1-9.8c1.3-4.1,5.7-6.4,9.8-5.1
							C519.8,360.1,522.1,364.5,520.8,368.6z M519.8,368.3c1.1-3.6-0.9-7.4-4.4-8.5c-3.6-1.1-7.4,0.9-8.5,4.4
							c-1.1,3.6,0.9,7.4,4.4,8.5C514.9,373.8,518.7,371.8,519.8,368.3z M519,368c-1,3.1-4.3,4.9-7.5,3.9c-3.1-1-4.9-4.3-3.9-7.5
							c1-3.1,4.3-4.9,7.5-3.9C518.3,361.6,520,364.9,519,368z M515.4,359.8c-3.6-1.1-7.4,0.9-8.5,4.4c-1.1,3.6,0.9,7.4,4.4,8.5
							c3.6,1.1,7.4-0.9,8.5-4.4C521,364.7,519,360.9,515.4,359.8z M519,368c-1,3.1-4.3,4.9-7.5,3.9c-3.1-1-4.9-4.3-3.9-7.5
							c1-3.1,4.3-4.9,7.5-3.9C518.3,361.6,520,364.9,519,368z M515.4,359.8c-3.6-1.1-7.4,0.9-8.5,4.4c-1.1,3.6,0.9,7.4,4.4,8.5
							c3.6,1.1,7.4-0.9,8.5-4.4C521,364.7,519,360.9,515.4,359.8z M519,368c-1,3.1-4.3,4.9-7.5,3.9c-3.1-1-4.9-4.3-3.9-7.5
							c1-3.1,4.3-4.9,7.5-3.9C518.3,361.6,520,364.9,519,368z"/>
						<g>
							<polygon class="st0" points="511.9,380.1 506.6,378.5 505.8,382.3 510.4,383.7 							"/>
							<polygon class="st0" points="502.5,375.2 499.9,370.3 496.6,372.4 498.9,376.7 							"/>
							<polygon class="st0" points="499.3,365.1 500.9,359.9 497.1,359 495.7,363.6 							"/>
							<polygon class="st0" points="504.2,355.7 509.1,353.1 507,349.8 502.7,352.1 							"/>
							<polygon class="st0" points="514.3,352.5 519.5,354.1 520.4,350.3 515.8,348.9 							"/>
							<polygon class="st0" points="523.7,357.4 526.3,362.3 529.6,360.2 527.3,355.9 							"/>
							<polygon class="st0" points="526.9,367.5 525.3,372.8 529.1,373.6 530.5,369 							"/>
							<polygon class="st0" points="522,376.9 517.1,379.5 519.2,382.8 523.5,380.5 							"/>
						</g>
					</g>
				</g>
			</g>
		</g>
		<g>
			<g>
				<path class="st0" d="M117.2,155c2.8-11.5-4.3-23.1-15.8-26c-11.5-2.8-23.1,4.3-26,15.8c-2.8,11.5,4.3,23.1,15.8,26
					C102.7,173.6,114.3,166.5,117.2,155z M106,152.3c-1.3,5.4-6.7,8.7-12.1,7.4s-8.7-6.7-7.4-12.1c1.3-5.4,6.7-8.7,12.1-7.4
					S107.3,146.9,106,152.3z"/>
				<polygon class="st0" points="95.4,170.9 87.4,168.9 86.5,174.7 93.6,176.4 				"/>
				<polygon class="st0" points="80.8,164.4 76.5,157.4 71.8,160.8 75.6,167.1 				"/>
				<polygon class="st0" points="75,149.6 77,141.5 71.2,140.6 69.4,147.7 				"/>
				<polygon class="st0" points="81.4,134.9 88.5,130.7 85.1,125.9 78.8,129.7 				"/>
				<polygon class="st0" points="96.3,129.2 104.3,131.1 105.3,125.3 98.2,123.6 				"/>
				<polygon class="st0" points="110.9,135.6 115.2,142.6 120,139.2 116.2,132.9 				"/>
				<polygon class="st0" points="116.7,150.5 114.8,158.5 120.6,159.4 122.3,152.3 				"/>
				<polygon class="st0" points="110.3,165.1 103.2,169.4 106.7,174.1 113,170.3 				"/>
			</g>
			<path class="st0" d="M89.6,153.8l6.4,3.5l6.3-3.8l-0.2-7.3l-6.4-3.5l-6.3,3.8L89.6,153.8z M96.4,147.8c1.3,0.3,2,1.6,1.7,2.8
				s-1.6,2-2.8,1.7c-1.2-0.3-2-1.6-1.7-2.8C93.9,148.2,95.2,147.4,96.4,147.8z"/>
		</g>
	</g>
</g>
</svg>
