<?xml version="1.0" encoding="utf-8"?>
<!-- Generator: Adobe Illustrator 22.0.1, SVG Export Plug-In . SVG Version: 6.00 Build 0)  -->
<svg version="1.1" id="Capa_1" xmlns="http://www.w3.org/2000/svg" xmlns:xlink="http://www.w3.org/1999/xlink" x="0px" y="0px"
	 viewBox="0 0 797.5 814.6" style="enable-background:new 0 0 797.5 814.6;" xml:space="preserve">
<style type="text/css">
	.st0{fill:#DFEAF7;}
	.st1{fill:#3D71F2;}
	.st2{fill:#FFB0B3;}
	.st3{fill:#002D53;}
	.st4{fill:#FF7A72;}
	.st5{fill:#FFB3AE;}
	.st6{fill:#6190E5;}
	.st7{fill:#F1F3F6;}
	.st8{fill:#D18C7E;}
	.st9{fill:#BC7F72;}
	.st10{fill:#FFFFFF;}
</style>
<g>
	<g>
		<path class="st0" d="M755.3,592.7c-11,22.6-29.5,42.8-53.7,60.1c-119.7,85.9-377.4,102.6-532,0c-25.5-16.9-48.2-37-67-60.6
			c-50.1-62.9-79.7-159.1-72.7-250c2.9-37.3,7.3-84.5,41.5-125.5c69.1-82.6,196.6-63.9,203-62.8c89.2,14.5,90.8,67.7,219.9,149.5
			c143.6,91.1,225.3,78.2,260.5,159.6C771,500.3,775,551.7,755.3,592.7z"/>
	</g>
	<g>
		<g>
			<g>
				<path class="st1" d="M295.3,621.8l29.9-134.4c7.5-33.7,30.1-62.1,61.2-77l88.4-42.3l90.7,37.7c36.5,15.2,63.1,47.3,71.2,86
					l27.2,130H295.3z"/>
			</g>
			<g>
				<path class="st2" d="M418.9,578.8c0,0,23.6-31,35-29c11.4,2,32.4,39,32.4,39H580l2.6-23.7c0,0,60,10.9,81.4,56.7H429.4
					L418.9,578.8z"/>
			</g>
			<g>
				<path class="st3" d="M582.6,568c-1.5,0-2.7-1.1-2.9-2.6l-8.1-80c-0.2-1.6,1-3,2.6-3.1c1.6-0.1,3,1,3.1,2.6l8.1,80
					c0.2,1.6-1,3-2.6,3.1C582.8,568,582.7,568,582.6,568z"/>
			</g>
		</g>
		<g>
			<g>
				<path class="st2" d="M432.9,354.6v62.3c0,0-4.4,38.5,20.3,35.1c24.7-3.5,50.9-71.7,50.9-71.7l-4.1-60.6L432.9,354.6z"/>
			</g>
			<g>
				<polygon class="st4" points="503.1,366.6 432.9,411.6 432.9,354.6 499.9,319.7 				"/>
			</g>
			<g>
				
					<ellipse transform="matrix(0.361 -0.9326 0.9326 0.361 15.1016 597.3629)" class="st5" cx="443.5" cy="287.7" rx="92.4" ry="64.6"/>
			</g>
			<g>
				<path class="st3" d="M511.9,276.3c0,0-34.4-18.8-53.2-62.6c0,0-88,68.9-108.7,26.7c-20.8-42.2,30.6-75.4,36.6-46.8
					c0,0,47.4-76.8,125.3-25.7S511.9,276.3,511.9,276.3z"/>
			</g>
			<g>
				<path class="st5" d="M524.6,297c-5,14-15.7,22.9-23.8,20c-8.2-2.9-10.7-16.6-5.7-30.6s15.7-22.9,23.8-20
					C527.1,269.3,529.7,283,524.6,297z"/>
			</g>
		</g>
	</g>
	<g>
		<g>
			<g>
				<rect x="135.4" y="507.8" class="st6" width="84" height="114"/>
			</g>
			<g>
				<path class="st6" d="M103.5,565.2c0,9.9,8.1,18,18,18c5.6,0,10.6-2.6,13.9-6.5v24.2c-4.3,1.7-9,2.6-13.9,2.6
					c-21.1,0-38.3-17.1-38.3-38.2c0-21.1,17.1-38.3,38.3-38.3c4.9,0,9.6,0.9,13.9,2.6v24.2c-3.3-4-8.3-6.5-13.9-6.5
					C111.6,547.2,103.5,555.2,103.5,565.2z"/>
			</g>
		</g>
		<g>
			<path class="st7" d="M158.9,422.6c10.3-15.8,25.4-28.5,33-45.8c10.4-23.7,4.9-51.7,12.9-76.4c11.5-35.8,48-56.9,69.4-87.9
				c23.3-33.7,26.9-80,9.2-116.9c-8.1-16.8-20.8-32.1-37.9-39.8c-20.2-9.2-44.8-6.6-63.7,4.8c-19,11.4-32.4,31-38.4,52.4
				c-14.7,52.6,13.8,109.4,2.4,162.9c-6.7,31.8-27,59.5-33.8,91.2c-5.9,27.6-0.3,57.2,13.9,81.5c4.2,7.1,15.8,29.6,22,14.1
				c2.4-5.9,0.9-13,2.2-19.2C151.7,436.1,154.8,428.9,158.9,422.6z"/>
		</g>
	</g>
	<g>
		<g>
			<rect x="88.8" y="621.8" class="st8" width="657" height="31"/>
		</g>
		<g>
			<path class="st9" d="M701.6,652.8c-119.7,85.9-377.4,102.6-532,0H701.6z"/>
		</g>
	</g>
	<g>
		<g>
			<path class="st10" d="M442.2,606.9c2,8.2-3.2,14.9-11.7,14.9H235.8c-8.4,0-17-6.7-19-14.9l-35.5-144.8c-2-8.2,3.2-14.9,11.7-14.9
				h194.7c8.4,0,17,6.7,19,14.9L442.2,606.9z"/>
		</g>
		<g>
			<path class="st0" d="M330.9,536.6c2.2,11.8-5.7,21.4-17.5,21.4c-11.8,0-23.2-9.6-25.4-21.4c-2.2-11.8,5.7-21.4,17.5-21.4
				C317.4,515.1,328.7,524.7,330.9,536.6z"/>
		</g>
	</g>
</g>
</svg>
