<?xml version="1.0" encoding="utf-8"?>
<!-- Generator: Adobe Illustrator 22.0.1, SVG Export Plug-In . SVG Version: 6.00 Build 0)  -->
<svg version="1.1" id="Layer_1" xmlns="http://www.w3.org/2000/svg" xmlns:xlink="http://www.w3.org/1999/xlink" x="0px" y="0px"
	 viewBox="0 0 53 10.1" style="enable-background:new 0 0 53 10.1;" xml:space="preserve">
<style type="text/css">
	.st0{fill:#333333;}
	.st1{enable-background:new    ;}
	.st2{fill:#009966;}
	.st3{fill:#CC3333;}
	.st4{fill:#3399FF;}
	.st5{fill:#FFCC33;}
</style>
<title>logo</title>
<g>
	<path d="M193.5-225.1h5.8v16.4c-2.1,1.7-4.5,3-7.3,4c-2.8,0.9-5.7,1.4-8.7,1.4c-4.3,0-8.1-0.9-11.5-2.8c-3.4-1.9-6.1-4.4-8.1-7.7
		s-2.9-6.9-2.9-11s1-7.8,2.9-11c2-3.3,4.7-5.8,8.1-7.7c3.4-1.8,7.3-2.8,11.6-2.8c3.4,0,6.5,0.6,9.2,1.6c2.8,1.1,5.1,2.7,7,4.8
		l-3.7,3.7c-3.4-3.2-7.5-4.9-12.3-4.9c-3.2,0-6.1,0.7-8.7,2.1c-2.6,1.4-4.6,3.3-6,5.8s-2.2,5.2-2.2,8.3c0,3,0.7,5.8,2.2,8.3
		s3.5,4.4,6,5.8c2.6,1.4,5.4,2.1,8.6,2.1c3.8,0,7.1-0.9,9.9-2.7L193.5-225.1L193.5-225.1z"/>
	<path d="M235.8-217.8h-26c0.4,2.8,1.6,5.1,3.7,6.8c2.1,1.7,4.7,2.5,7.9,2.5c3.8,0,6.9-1.3,9.2-3.8l3.2,3.7c-1.5,1.7-3.3,3-5.4,3.8
		c-2.2,0.9-4.6,1.3-7.2,1.3c-3.4,0-6.4-0.7-9-2.1c-2.6-1.4-4.6-3.3-6.1-5.8c-1.4-2.5-2.1-5.3-2.1-8.4c0-3.1,0.7-5.9,2.1-8.3
		c1.4-2.5,3.3-4.4,5.7-5.8c2.4-1.4,5.2-2.1,8.2-2.1c3.1,0,5.8,0.7,8.2,2.1c2.4,1.4,4.3,3.3,5.6,5.8s2,5.3,2,8.5
		C235.9-219.1,235.9-218.6,235.8-217.8z M213.1-228.6c-1.9,1.7-3,3.9-3.3,6.6h20.5c-0.3-2.7-1.4-4.9-3.3-6.6c-1.9-1.7-4.2-2.6-7-2.6
		S215-230.3,213.1-228.6z"/>
	<path d="M246.7-205.6c-2.5-1.4-4.5-3.3-6-5.8c-1.4-2.5-2.1-5.3-2.1-8.4s0.7-5.9,2.1-8.4c1.4-2.5,3.4-4.4,6-5.8
		c2.5-1.4,5.4-2.1,8.6-2.1c3.2,0,6,0.7,8.5,2.1c2.5,1.4,4.5,3.3,5.9,5.8s2.1,5.3,2.1,8.4s-0.7,5.9-2.1,8.4s-3.4,4.4-5.9,5.8
		c-2.5,1.4-5.4,2.1-8.5,2.1C252.1-203.5,249.2-204.2,246.7-205.6z"/>
	<path d="M281.3-204.5c-3.1-0.9-5.6-2.1-7.5-3.5l3.3-7.3c1.8,1.3,4,2.4,6.5,3.2s5,1.2,7.5,1.2c2.8,0,4.8-0.4,6.2-1.2
		c1.3-0.8,2-1.9,2-3.3c0-1-0.4-1.8-1.2-2.5c-0.8-0.7-1.8-1.2-3-1.6c-1.2-0.4-2.9-0.8-5-1.3c-3.2-0.8-5.9-1.5-7.9-2.3
		c-2.1-0.8-3.8-2-5.3-3.7s-2.2-3.9-2.2-6.7c0-2.4,0.7-4.6,2-6.6s3.3-3.5,6-4.7s6-1.7,9.8-1.7c2.7,0,5.3,0.3,7.9,1
		c2.6,0.6,4.8,1.6,6.8,2.8l-3,7.4c-3.9-2.2-7.8-3.3-11.7-3.3c-2.7,0-4.8,0.4-6.1,1.3c-1.3,0.9-2,2-2,3.5s0.8,2.5,2.3,3.2
		s3.8,1.4,6.9,2.1c3.2,0.8,5.9,1.5,7.9,2.3c2.1,0.8,3.8,2,5.3,3.6s2.2,3.9,2.2,6.7c0,2.4-0.7,4.6-2,6.6s-3.4,3.6-6.1,4.7
		c-2.7,1.2-6,1.7-9.8,1.7C287.7-203.1,284.4-203.6,281.3-204.5z"/>
	<path d="M313.6-245.9h9.8v42h-9.8V-245.9z"/>
	<path d="M359.5-225.5h8.9v17c-2.3,1.7-5,3-8,4c-3,0.9-6.1,1.4-9.1,1.4c-4.4,0-8.3-0.9-11.8-2.8c-3.5-1.9-6.3-4.4-8.2-7.7
		c-2-3.3-3-7-3-11.2s1-7.9,3-11.2s4.8-5.9,8.3-7.7c3.5-1.9,7.5-2.8,12-2.8c3.7,0,7.1,0.6,10.1,1.9c3,1.2,5.6,3,7.6,5.4l-6.3,5.8
		c-3-3.2-6.7-4.7-10.9-4.7c-2.7,0-5.1,0.6-7.2,1.7c-2.1,1.1-3.7,2.7-4.9,4.7c-1.2,2-1.8,4.4-1.8,7s0.6,4.9,1.8,7
		c1.2,2,2.8,3.6,4.9,4.8s4.4,1.7,7.1,1.7c2.8,0,5.4-0.6,7.6-1.8v-12.5H359.5z"/>
</g>
<text transform="matrix(1.007 0 0 1 -154.667 -171.3647)" style="font-family:'Montserrat-Medium'; font-size:60px;">Geo</text>
<text transform="matrix(1.007 0 0 1 -37.251 -171.3647)" style="font-family:'Montserrat-Bold'; font-size:60px;">SIG</text>
<path class="st0" d="M10.1,5h1.3v3.7c-0.5,0.4-1,0.7-1.7,0.9C9.1,9.9,8.5,10,7.8,10c-1,0-1.9-0.2-2.6-0.6C4.4,9,3.8,8.4,3.4,7.6
	C2.9,6.8,2.6,6,2.6,5s0.2-1.8,0.7-2.5c0.4-0.8,1.1-1.3,1.9-1.8s1.7-0.6,2.7-0.6c0.8,0,1.5,0.1,2.1,0.4s1.2,0.6,1.6,1.1l-0.9,0.9
	C9.9,1.7,9,1.4,7.9,1.4c-0.7,0-1.4,0.2-2,0.5s-1,0.8-1.4,1.3C4.2,3.7,4,4.3,4,5s0.2,1.3,0.5,1.9s0.8,1,1.4,1.3
	c0.6,0.3,1.2,0.5,2,0.5c0.9,0,1.6-0.2,2.3-0.6L10.1,5L10.1,5z"/>
<path class="st0" d="M19.8,6.7h-5.9c0.1,0.6,0.4,1.2,0.8,1.5c0.5,0.4,1.1,0.6,1.8,0.6c0.9,0,1.6-0.3,2.1-0.9l0.7,0.9
	c-0.3,0.4-0.7,0.7-1.2,0.9s-1,0.3-1.7,0.3c-0.8,0-1.5-0.2-2.1-0.5s-1.1-0.8-1.4-1.3c-0.3-0.6-0.5-1.2-0.5-1.9s0.2-1.3,0.5-1.9
	s0.8-1,1.3-1.3c0.6-0.3,1.2-0.5,1.9-0.5s1.3,0.2,1.9,0.5c0.5,0.3,1,0.8,1.3,1.3c0.3,0.6,0.5,1.2,0.5,1.9C19.8,6.4,19.8,6.5,19.8,6.7
	z M14.6,4.2c-0.4,0.4-0.7,0.9-0.8,1.5h4.7c-0.1-0.6-0.3-1.1-0.8-1.5s-1-0.6-1.6-0.6C15.6,3.6,15.1,3.8,14.6,4.2z"/>
<path class="st0" d="M22.3,9.5c-0.6-0.3-1-0.8-1.4-1.3c-0.3-0.6-0.5-1.2-0.5-1.9s0.2-1.4,0.5-1.9c0.3-0.6,0.8-1,1.4-1.3
	s1.2-0.5,2-0.5c0.7,0,1.4,0.2,2,0.5s1,0.8,1.4,1.3C28,5,28.2,5.6,28.2,6.3S28,7.7,27.7,8.2c-0.3,0.6-0.8,1-1.4,1.3s-1.2,0.5-2,0.5
	C23.5,9.9,22.9,9.8,22.3,9.5z M25.5,8.5c0.4-0.2,0.7-0.5,0.9-0.9c0.2-0.4,0.3-0.8,0.3-1.3S26.6,5.4,26.4,5c-0.2-0.4-0.5-0.7-0.9-0.9
	c-0.4-0.2-0.8-0.3-1.3-0.3s-0.9,0.1-1.3,0.3C22.5,4.3,22.2,4.6,22,5c-0.2,0.4-0.3,0.8-0.3,1.3s0.1,0.9,0.3,1.3
	c0.2,0.4,0.5,0.7,0.9,0.9s0.8,0.3,1.3,0.3S25.2,8.7,25.5,8.5z"/>
<path class="st0" d="M30.2,9.7c-0.7-0.2-1.3-0.5-1.7-0.8l0.8-1.7c0.4,0.3,0.9,0.5,1.5,0.7s1.1,0.3,1.7,0.3c0.6,0,1.1-0.1,1.4-0.3
	c0.3-0.2,0.5-0.4,0.5-0.7c0-0.2-0.1-0.4-0.3-0.6s-0.4-0.3-0.7-0.4S32.7,6,32.3,5.9c-0.7-0.2-1.3-0.3-1.8-0.5s-0.9-0.5-1.2-0.8
	c-0.3-0.4-0.5-0.9-0.5-1.5S29,2,29.3,1.6c0.3-0.5,0.8-0.8,1.4-1.1s1.4-0.4,2.2-0.4c0.6,0,1.2,0.1,1.8,0.2s1.1,0.4,1.5,0.6l-0.7,1.7
	c-0.9-0.5-1.8-0.8-2.7-0.8c-0.6,0-1.1,0.1-1.4,0.3S31,2.6,31,2.9s0.2,0.6,0.5,0.7C31.8,3.9,32.3,4,33,4.2s1.3,0.3,1.8,0.5
	s0.9,0.4,1.2,0.8s0.5,0.9,0.5,1.5c0,0.5-0.2,1-0.5,1.5s-0.8,0.8-1.4,1.1C34,9.9,33.2,10,32.3,10C31.7,10,30.9,9.9,30.2,9.7z"/>
<path class="st0" d="M37.6,0.2h2.2v9.6h-2.2V0.2z"/>
<path class="st0" d="M48.1,4.9h2v3.9c-0.5,0.4-1.1,0.7-1.8,0.9S46.9,10,46.2,10c-1,0-1.9-0.2-2.7-0.6c-0.8-0.4-1.4-1-1.9-1.8
	C41.2,6.8,41,6,41,5s0.2-1.8,0.7-2.6s1.1-1.3,1.9-1.8C44.4,0.2,45.3,0,46.3,0c0.8,0,1.6,0.1,2.3,0.4s1.3,0.7,1.7,1.2l-1.4,1.3
	C48.2,2.3,47.4,2,46.4,2c-0.6,0-1.2,0.1-1.6,0.4c-0.5,0.3-0.9,0.6-1.1,1.1c-0.3,0.5-0.4,1-0.4,1.6s0.1,1.1,0.4,1.6
	c0.3,0.5,0.6,0.8,1.1,1.1s1,0.4,1.6,0.4s1.2-0.1,1.7-0.4C48.1,7.8,48.1,4.9,48.1,4.9z"/>
<path d="M-565.4-172.9h5.8v16.4c-2.1,1.7-4.5,3-7.3,4s-5.7,1.4-8.7,1.4c-4.3,0-8.1-0.9-11.5-2.8c-3.4-1.9-6.1-4.4-8.1-7.7
	c-2-3.3-2.9-6.9-2.9-11s1-7.8,2.9-11c2-3.3,4.7-5.8,8.1-7.7c3.4-1.8,7.3-2.8,11.6-2.8c3.4,0,6.5,0.6,9.2,1.6c2.8,1.1,5.1,2.7,7,4.8
	l-3.7,3.7c-3.4-3.2-7.5-4.9-12.3-4.9c-3.2,0-6.1,0.7-8.7,2.1s-4.6,3.3-6,5.8s-2.2,5.2-2.2,8.3c0,3,0.7,5.8,2.2,8.3s3.5,4.4,6,5.8
	s5.4,2.1,8.6,2.1c3.8,0,7.1-0.9,9.9-2.7V-172.9z"/>
<path d="M-521.1-165.7h-26c0.4,2.8,1.6,5.1,3.7,6.8c2.1,1.7,4.7,2.5,7.9,2.5c3.8,0,6.9-1.3,9.2-3.8l3.2,3.7c-1.5,1.7-3.3,3-5.4,3.8
	c-2.2,0.9-4.6,1.3-7.2,1.3c-3.4,0-6.4-0.7-9-2.1c-2.6-1.4-4.6-3.3-6.1-5.8c-1.4-2.5-2.1-5.3-2.1-8.4c0-3.1,0.7-5.9,2.1-8.3
	c1.4-2.5,3.3-4.4,5.7-5.8c2.4-1.4,5.2-2.1,8.2-2.1c3.1,0,5.8,0.7,8.2,2.1c2.4,1.4,4.3,3.3,5.6,5.8c1.3,2.5,2,5.3,2,8.5
	C-520.9-167-521-166.4-521.1-165.7z M-543.7-176.4c-1.9,1.7-3,3.9-3.3,6.6h20.5c-0.3-2.7-1.4-4.9-3.3-6.6c-1.9-1.7-4.2-2.5-7-2.5
	S-541.9-178.1-543.7-176.4z"/>
<g class="st1">
	<path d="M-474.4-152.3c-3.1-0.9-5.6-2.1-7.5-3.5l3.3-7.3c1.8,1.3,4,2.4,6.5,3.2c2.5,0.8,5,1.2,7.5,1.2c2.8,0,4.8-0.4,6.2-1.2
		c1.3-0.8,2-1.9,2-3.3c0-1-0.4-1.8-1.2-2.5c-0.8-0.7-1.8-1.2-3-1.6c-1.2-0.4-2.9-0.8-5-1.3c-3.2-0.8-5.9-1.5-7.9-2.3
		c-2.1-0.8-3.8-2-5.3-3.7c-1.5-1.7-2.2-3.9-2.2-6.7c0-2.4,0.7-4.6,2-6.6c1.3-2,3.3-3.5,6-4.7c2.7-1.2,6-1.7,9.8-1.7
		c2.7,0,5.3,0.3,7.9,1c2.6,0.6,4.8,1.6,6.8,2.8l-3,7.4c-3.9-2.2-7.8-3.3-11.7-3.3c-2.7,0-4.8,0.4-6.1,1.3c-1.3,0.9-2,2-2,3.5
		c0,1.4,0.8,2.5,2.3,3.2c1.5,0.7,3.8,1.4,6.9,2.1c3.2,0.8,5.9,1.5,7.9,2.3c2.1,0.8,3.8,2,5.3,3.6c1.5,1.6,2.2,3.9,2.2,6.7
		c0,2.4-0.7,4.6-2,6.6c-1.3,2-3.4,3.6-6.1,4.7c-2.7,1.2-6,1.7-9.8,1.7C-468.1-151-471.3-151.4-474.4-152.3z"/>
	<path d="M-441-193.7h9.8v42h-9.8V-193.7z"/>
	<path d="M-393.6-173.4h8.9v17c-2.3,1.7-5,3-8,4c-3,0.9-6.1,1.4-9.1,1.4c-4.4,0-8.3-0.9-11.8-2.8s-6.3-4.4-8.2-7.7
		c-2-3.3-3-7-3-11.2s1-7.9,3-11.2c2-3.3,4.8-5.9,8.3-7.7c3.5-1.9,7.5-2.8,12-2.8c3.7,0,7.1,0.6,10.1,1.9c3,1.2,5.6,3,7.6,5.4
		l-6.3,5.8c-3-3.2-6.7-4.7-10.9-4.7c-2.7,0-5.1,0.6-7.2,1.7c-2.1,1.1-3.7,2.7-4.9,4.7c-1.2,2-1.8,4.4-1.8,7c0,2.6,0.6,4.9,1.8,7
		c1.2,2,2.8,3.6,4.9,4.8c2.1,1.1,4.4,1.7,7.1,1.7c2.8,0,5.4-0.6,7.6-1.8V-173.4z"/>
</g>
<path d="M-553.1-103.3h-26c0.4,2.8,1.6,5,3.7,6.8c2.1,1.7,4.7,2.5,7.9,2.5c3.8,0,6.9-1.3,9.2-3.8l3.2,3.7c-1.5,1.7-3.3,3-5.4,3.8
	c-2.2,0.9-4.6,1.3-7.2,1.3c-3.4,0-6.4-0.7-9-2.1c-2.6-1.4-4.6-3.3-6.1-5.8c-1.4-2.5-2.1-5.3-2.1-8.4c0-3.1,0.7-5.9,2.1-8.3
	c1.4-2.5,3.3-4.4,5.7-5.8c2.4-1.4,5.2-2.1,8.2-2.1c3.1,0,5.8,0.7,8.2,2.1c2.4,1.4,4.3,3.3,5.6,5.8c1.3,2.5,2,5.3,2,8.5
	C-552.9-104.6-553-104.1-553.1-103.3z M-575.7-114.1c-1.9,1.7-3,3.9-3.3,6.6h20.5c-0.3-2.7-1.4-4.9-3.3-6.6s-4.2-2.6-7-2.6
	S-573.9-115.8-575.7-114.1z"/>
<path d="M-540.7-91.1c-2.5-1.4-4.5-3.3-6-5.8c-1.4-2.5-2.1-5.3-2.1-8.4s0.7-5.9,2.1-8.4c1.4-2.5,3.4-4.4,6-5.8
	c2.5-1.4,5.4-2.1,8.6-2.1s6,0.7,8.5,2.1c2.5,1.4,4.5,3.3,5.9,5.8s2.1,5.3,2.1,8.4s-0.7,5.9-2.1,8.4c-1.4,2.5-3.4,4.4-5.9,5.8
	c-2.5,1.4-5.4,2.1-8.5,2.1S-538.2-89.7-540.7-91.1z M-526.6-95.5c1.6-0.9,2.9-2.3,3.8-4c0.9-1.7,1.4-3.6,1.4-5.8s-0.5-4.1-1.4-5.9
	c-0.9-1.7-2.2-3-3.8-3.9c-1.6-0.9-3.5-1.4-5.5-1.4c-2.1,0-3.9,0.5-5.5,1.4c-1.6,0.9-2.9,2.2-3.9,3.9c-0.9,1.7-1.4,3.7-1.4,5.9
	s0.5,4.2,1.4,5.8c0.9,1.7,2.2,3,3.9,4c1.6,0.9,3.5,1.4,5.5,1.4C-530.1-94-528.2-94.5-526.6-95.5z"/>
<g>
	<rect x="-413.6" y="-86.7" class="st2" width="19.8" height="19"/>
	<rect x="-389.3" y="-86.7" class="st3" width="9" height="19"/>
	<rect x="-413.6" y="-100.2" class="st4" width="33.3" height="9"/>
	<polygon class="st5" points="-380.3,-91.3 -380.3,-86.7 -389.3,-86.7 -389.3,-67.8 -393.9,-67.8 -393.9,-86.7 -413.6,-86.7 
		-413.6,-91.3 	"/>
</g>
<rect x="-606.4" y="-78.3" class="st4" width="32.3" height="24"/>
<rect x="-571.6" y="-78.3" class="st4" width="32.3" height="24"/>
<rect x="-536.3" y="-78.3" class="st2" width="32.3" height="24"/>
<rect x="-499.8" y="-78.3" class="st5" width="32.3" height="24"/>
<rect x="-463.2" y="-78.3" class="st3" width="32.3" height="24"/>
<path d="M-347.2-99.9c-2.5-1.4-4.5-3.3-6-5.8c-1.4-2.5-2.1-5.3-2.1-8.4s0.7-5.9,2.1-8.4c1.4-2.5,3.4-4.4,6-5.8
	c2.5-1.4,5.4-2.1,8.6-2.1s6,0.7,8.5,2.1c2.5,1.4,4.5,3.3,5.9,5.8s2.1,5.3,2.1,8.4s-0.7,5.9-2.1,8.4c-1.4,2.5-3.4,4.4-5.9,5.8
	c-2.5,1.4-5.4,2.1-8.5,2.1S-344.7-98.5-347.2-99.9z M-333.1-104.2c1.6-0.9,2.9-2.3,3.8-4c0.9-1.7,1.4-3.6,1.4-5.8s-0.5-4.1-1.4-5.9
	c-0.9-1.7-2.2-3-3.8-3.9c-1.6-0.9-3.5-1.4-5.5-1.4c-2.1,0-3.9,0.5-5.5,1.4c-1.6,0.9-2.9,2.2-3.9,3.9c-0.9,1.7-1.4,3.7-1.4,5.9
	s0.5,4.2,1.4,5.8c0.9,1.7,2.2,3,3.9,4c1.6,0.9,3.5,1.4,5.5,1.4C-336.6-102.8-334.7-103.3-333.1-104.2z"/>
<path d="M-250.3-106.6v5.2c-1,0.2-2,0.3-3.1,0.3c-3.2,0-6-0.7-8.6-2.1c-2.5-1.4-4.5-3.3-6-5.8c-1.4-2.5-2.1-5.3-2.1-8.4
	c0-0.9,0.1-1.8,0.2-2.7h5.9c-0.2,0.8-0.3,1.8-0.3,2.7c0,2.2,0.5,4.1,1.4,5.8c0.9,1.7,2.2,3,3.9,4c1.6,0.9,3.5,1.4,5.5,1.4
	C-252.3-106.2-251.3-106.3-250.3-106.6z"/>
<path class="st2" d="M-269.9-120.1c-0.1,0.9-0.2,1.8-0.2,2.7v-2.7H-269.9z"/>
<path class="st2" d="M-262-103.3c2.5,1.4,5.4,2.1,8.6,2.1h-16.7v-16.3c0,3.1,0.7,5.9,2.1,8.4C-266.5-106.6-264.5-104.7-262-103.3z"
	/>
<path class="st2" d="M-250.3-120.1v13.5c-1,0.3-2,0.4-3.1,0.4c-2,0-3.9-0.5-5.5-1.4c-1.6-0.9-2.9-2.3-3.9-4c-1-1.7-1.4-3.7-1.4-5.8
	c0-0.9,0.1-1.8,0.3-2.7H-250.3z"/>
<path class="st2" d="M-253.4-101.2c1.1,0,2.1-0.1,3.1-0.3v0.3H-253.4z"/>
<path d="M-236.8-117.4c0,3.1-0.7,5.9-2.1,8.4c-1.4,2.5-3.4,4.4-5.9,5.8c-0.3,0.2-0.6,0.3-0.9,0.5v-6.5c0.7-0.7,1.2-1.4,1.7-2.3
	c0.9-1.7,1.4-3.7,1.4-5.8c0-0.9-0.1-1.8-0.3-2.7h5.9C-236.8-119.2-236.8-118.4-236.8-117.4z"/>
<path class="st3" d="M-244-111.6c-0.5,0.9-1.1,1.7-1.7,2.3v-10.9h2.8c0.2,0.8,0.3,1.8,0.3,2.7C-242.6-115.2-243.1-113.3-244-111.6z"
	/>
<path class="st3" d="M-236.8-120.1v2.7c0-0.9-0.1-1.8-0.2-2.7H-236.8z"/>
<path class="st3" d="M-238.9-109.1c1.4-2.5,2.1-5.3,2.1-8.4v16.3h-9v-1.6c0.3-0.1,0.6-0.3,0.9-0.5
	C-242.3-104.7-240.4-106.6-238.9-109.1z"/>
<path d="M-238.3-124.7h-6.6c-0.8-1-1.8-1.9-2.9-2.5c-1.6-0.9-3.5-1.4-5.5-1.4c-2,0-3.9,0.5-5.5,1.4c-1.1,0.7-2.1,1.5-2.9,2.5h-6.7
	c0.2-0.4,0.4-0.8,0.6-1.1c1.4-2.5,3.4-4.4,6-5.8c2.5-1.4,5.4-2.1,8.6-2.1c3.2,0,6,0.7,8.6,2.1c2.5,1.4,4.5,3.3,5.9,5.8
	C-238.7-125.4-238.5-125.1-238.3-124.7z"/>
<path class="st4" d="M-270.1-133.6h16.7c-3.2,0-6,0.7-8.6,2.1c-2.5,1.4-4.5,3.3-6,5.8c-0.2,0.4-0.4,0.7-0.6,1.1h-1.6V-133.6z"/>
<path class="st4" d="M-245-124.7h-16.9c0.8-1,1.8-1.9,2.9-2.5c1.6-0.9,3.5-1.4,5.5-1.4c2.1,0,3.9,0.5,5.5,1.4
	C-246.7-126.6-245.8-125.7-245-124.7z"/>
<path class="st4" d="M-236.8-133.6v9h-1.6c-0.2-0.4-0.4-0.8-0.6-1.1c-1.4-2.5-3.4-4.4-5.9-5.8c-2.5-1.4-5.4-2.1-8.6-2.1H-236.8z"/>
<path d="M-261.9-124.7c-0.3,0.4-0.7,0.9-0.9,1.4c-0.5,1-0.9,2-1.2,3.2h-5.9c0.2-1.6,0.7-3.2,1.4-4.6H-261.9z"/>
<path class="st5" d="M-270.1-124.7h1.6c-0.7,1.4-1.1,2.9-1.4,4.6h-0.2V-124.7z"/>
<path d="M-237-120.1h-5.9c-0.2-1.1-0.6-2.2-1.1-3.2c-0.3-0.5-0.6-1-0.9-1.4h6.6C-237.7-123.3-237.2-121.7-237-120.1z"/>
<path d="M-245.8-109.3v6.5c-1.4,0.7-2.9,1.1-4.6,1.4v-5.2c0.9-0.2,1.7-0.6,2.4-1C-247.1-108.1-246.4-108.6-245.8-109.3z"/>
<path class="st5" d="M-250.3-101.4c1.6-0.2,3.1-0.7,4.6-1.4v1.6h-4.6V-101.4z"/>
<path class="st5" d="M-242.9-120.1h-2.8v10.9c-0.6,0.6-1.3,1.2-2.1,1.6c-0.8,0.4-1.6,0.8-2.4,1v-13.5H-264c0.2-1.1,0.6-2.2,1.2-3.2
	c0.3-0.5,0.6-1,0.9-1.4h16.9c0.3,0.4,0.7,0.9,0.9,1.4C-243.5-122.3-243.1-121.3-242.9-120.1z"/>
<path class="st5" d="M-236.8-124.7v4.6h-0.2c-0.2-1.6-0.7-3.2-1.4-4.6H-236.8z"/>
<path d="M-181.2-103.9v5.2c-1,0.2-2,0.3-3.1,0.3c-3.2,0-6-0.7-8.6-2.1c-2.5-1.4-4.5-3.3-6-5.8c-1.4-2.5-2.1-5.3-2.1-8.4
	c0-0.9,0.1-1.8,0.2-2.7h5.9c-0.2,0.8-0.3,1.8-0.3,2.7c0,2.2,0.5,4.1,1.4,5.8c0.9,1.7,2.2,3,3.9,4c1.6,0.9,3.5,1.4,5.5,1.4
	C-183.2-103.5-182.1-103.6-181.2-103.9z"/>
<path class="st2" d="M-200.7-117.4c-0.1,0.9-0.2,1.8-0.2,2.7v-2.7H-200.7z"/>
<path class="st2" d="M-184.2-98.5c1.1,0,2.1-0.1,3.1-0.3v0.3H-184.2z"/>
<path d="M-167.6-114.7c0,3.1-0.7,5.9-2.1,8.4c-1.4,2.5-3.4,4.4-5.9,5.8c-0.3,0.2-0.6,0.3-0.9,0.5v-6.5c0.7-0.7,1.2-1.4,1.7-2.3
	c0.9-1.7,1.4-3.7,1.4-5.8c0-0.9-0.1-1.8-0.3-2.7h5.9C-167.7-116.5-167.6-115.6-167.6-114.7z"/>
<path d="M-169.2-122h-6.6c-0.8-1-1.8-1.9-2.9-2.5c-1.6-0.9-3.5-1.4-5.5-1.4c-2,0-3.9,0.5-5.5,1.4c-1.1,0.7-2.1,1.5-2.9,2.5h-6.7
	c0.2-0.4,0.4-0.8,0.6-1.1c1.4-2.5,3.4-4.4,6-5.8c2.5-1.4,5.4-2.1,8.6-2.1c3.2,0,6,0.7,8.6,2.1c2.5,1.4,4.5,3.3,5.9,5.8
	C-169.6-122.7-169.4-122.3-169.2-122z"/>
<path d="M-192.7-122c-0.3,0.4-0.7,0.9-0.9,1.4c-0.5,1-0.9,2-1.2,3.2h-5.9c0.2-1.6,0.7-3.2,1.4-4.6H-192.7z"/>
<path d="M-167.8-117.4h-5.9c-0.2-1.1-0.6-2.2-1.1-3.2c-0.3-0.5-0.6-1-0.9-1.4h6.6C-168.5-120.6-168-119-167.8-117.4z"/>
<path d="M-176.6-106.5v6.5c-1.4,0.7-2.9,1.1-4.6,1.4v-5.2c0.9-0.2,1.7-0.6,2.4-1C-177.9-105.4-177.2-105.9-176.6-106.5z"/>
<path d="M-589.9-278.8h5.8v16.4c-2.1,1.7-4.5,3-7.3,4s-5.7,1.4-8.7,1.4c-4.3,0-8.1-0.9-11.5-2.8c-3.4-1.9-6.1-4.4-8.1-7.7
	c-2-3.3-2.9-6.9-2.9-11s1-7.8,2.9-11c2-3.3,4.7-5.8,8.1-7.7c3.4-1.8,7.3-2.8,11.6-2.8c3.4,0,6.5,0.6,9.2,1.6c2.8,1.1,5.1,2.7,7,4.8
	l-3.7,3.7c-3.4-3.2-7.5-4.9-12.3-4.9c-3.2,0-6.1,0.7-8.7,2.1s-4.6,3.3-6,5.8s-2.2,5.2-2.2,8.3c0,3,0.7,5.8,2.2,8.3s3.5,4.4,6,5.8
	s5.4,2.1,8.6,2.1c3.8,0,7.1-0.9,9.9-2.7V-278.8z"/>
<path d="M-545.6-271.5h-26c0.4,2.8,1.6,5.1,3.7,6.8c2.1,1.7,4.7,2.5,7.9,2.5c3.8,0,6.9-1.3,9.2-3.8l3.2,3.7c-1.5,1.7-3.3,3-5.4,3.8
	c-2.2,0.9-4.6,1.3-7.2,1.3c-3.4,0-6.4-0.7-9-2.1c-2.6-1.4-4.6-3.3-6.1-5.8c-1.4-2.5-2.1-5.3-2.1-8.4c0-3.1,0.7-5.9,2.1-8.3
	c1.4-2.5,3.3-4.4,5.7-5.8c2.4-1.4,5.2-2.1,8.2-2.1c3.1,0,5.8,0.7,8.2,2.1c2.4,1.4,4.3,3.3,5.6,5.8c1.3,2.5,2,5.3,2,8.5
	C-545.4-272.8-545.5-272.2-545.6-271.5z M-568.3-282.2c-1.9,1.7-3,3.9-3.3,6.6h20.5c-0.3-2.7-1.4-4.9-3.3-6.6
	c-1.9-1.7-4.2-2.5-7-2.5S-566.4-283.9-568.3-282.2z"/>
<g class="st1">
	<path d="M-498.9-258.2c-3.1-0.9-5.6-2.1-7.5-3.5l3.3-7.3c1.8,1.3,4,2.4,6.5,3.2c2.5,0.8,5,1.2,7.5,1.2c2.8,0,4.8-0.4,6.2-1.2
		c1.3-0.8,2-1.9,2-3.3c0-1-0.4-1.8-1.2-2.5c-0.8-0.7-1.8-1.2-3-1.6c-1.2-0.4-2.9-0.8-5-1.3c-3.2-0.8-5.9-1.5-7.9-2.3
		c-2.1-0.8-3.8-2-5.3-3.7c-1.5-1.7-2.2-3.9-2.2-6.7c0-2.4,0.7-4.6,2-6.6c1.3-2,3.3-3.5,6-4.7c2.7-1.2,6-1.7,9.8-1.7
		c2.7,0,5.3,0.3,7.9,1c2.6,0.6,4.8,1.6,6.8,2.8l-3,7.4c-3.9-2.2-7.8-3.3-11.7-3.3c-2.7,0-4.8,0.4-6.1,1.3c-1.3,0.9-2,2-2,3.5
		c0,1.4,0.8,2.5,2.3,3.2c1.5,0.7,3.8,1.4,6.9,2.1c3.2,0.8,5.9,1.5,7.9,2.3c2.1,0.8,3.8,2,5.3,3.6c1.5,1.6,2.2,3.9,2.2,6.7
		c0,2.4-0.7,4.6-2,6.6c-1.3,2-3.4,3.6-6.1,4.7c-2.7,1.2-6,1.7-9.8,1.7C-492.6-256.8-495.8-257.3-498.9-258.2z"/>
	<path d="M-465.6-299.5h9.8v42h-9.8V-299.5z"/>
	<path d="M-418.1-279.2h8.9v17c-2.3,1.7-5,3-8,4c-3,0.9-6.1,1.4-9.1,1.4c-4.4,0-8.3-0.9-11.8-2.8s-6.3-4.4-8.2-7.7
		c-2-3.3-3-7-3-11.2s1-7.9,3-11.2c2-3.3,4.8-5.9,8.3-7.7c3.5-1.9,7.5-2.8,12-2.8c3.7,0,7.1,0.6,10.1,1.9c3,1.2,5.6,3,7.6,5.4
		l-6.3,5.8c-3-3.2-6.7-4.7-10.9-4.7c-2.7,0-5.1,0.6-7.2,1.7c-2.1,1.1-3.7,2.7-4.9,4.7c-1.2,2-1.8,4.4-1.8,7c0,2.6,0.6,4.9,1.8,7
		c1.2,2,2.8,3.6,4.9,4.8c2.1,1.1,4.4,1.7,7.1,1.7c2.8,0,5.4-0.6,7.6-1.8V-279.2z"/>
</g>
<g>
	<path class="st2" d="M-521.6-262.6v5.2c-1,0.2-2,0.3-3.1,0.3c-3.2,0-6-0.7-8.6-2.1c-2.5-1.4-4.5-3.3-6-5.8
		c-1.4-2.5-2.1-5.3-2.1-8.4c0-0.9,0.1-1.8,0.2-2.7h5.9c-0.2,0.8-0.3,1.8-0.3,2.7c0,2.2,0.5,4.1,1.4,5.8s2.2,3,3.9,4s3.5,1.4,5.5,1.4
		C-523.6-262.2-522.5-262.3-521.6-262.6z"/>
	<path class="st3" d="M-508.1-273.4c0,3.1-0.7,5.9-2.1,8.4c-1.4,2.5-3.4,4.4-5.9,5.8c-0.3,0.2-0.6,0.3-0.9,0.5v-6.5
		c0.7-0.7,1.2-1.4,1.7-2.3c0.9-1.7,1.4-3.7,1.4-5.8c0-0.9-0.1-1.8-0.3-2.7h5.9C-508.1-275.3-508.1-274.4-508.1-273.4z"/>
	<path class="st4" d="M-509.6-280.7h-6.6c-0.8-1-1.8-1.9-2.9-2.5c-1.6-0.9-3.5-1.4-5.5-1.4c-2,0-3.9,0.5-5.5,1.4
		c-1.1,0.7-2.1,1.5-2.9,2.5h-6.7c0.2-0.4,0.4-0.8,0.6-1.1c1.4-2.5,3.4-4.4,6-5.8c2.5-1.4,5.4-2.1,8.6-2.1c3.2,0,6,0.7,8.6,2.1
		c2.5,1.4,4.5,3.3,5.9,5.8C-510-281.4-509.8-281.1-509.6-280.7z"/>
	<path class="st5" d="M-533.1-280.7c-0.3,0.4-0.7,0.9-0.9,1.4c-0.5,1-0.9,2-1.2,3.2h-5.9c0.2-1.6,0.7-3.2,1.4-4.6H-533.1z"/>
	<path class="st5" d="M-508.2-276.1h-5.9c-0.2-1.1-0.6-2.2-1.1-3.2c-0.3-0.5-0.6-1-0.9-1.4h6.6
		C-508.9-279.3-508.5-277.7-508.2-276.1z"/>
	<path class="st5" d="M-517-265.3v6.5c-1.4,0.7-2.9,1.1-4.6,1.4v-5.2c0.9-0.2,1.7-0.6,2.4-1C-518.4-264.1-517.6-264.6-517-265.3z"/>
</g>
</svg>
